<svg width="20" height="18" viewBox="0 0 20 18" fill="none" xmlns="http://www.w3.org/2000/svg">
<path d="M18.7979 7.17227C18.7161 7.15899 18.6332 7.15287 18.5504 7.15394H4.44078L4.74844 7.01084C5.04917 6.8685 5.32276 6.67478 5.55695 6.43844L9.51364 2.48176C10.0347 1.98431 10.1223 1.18407 9.72113 0.585694C9.25423 -0.0519459 8.35883 -0.190394 7.72114 0.276511C7.66963 0.314254 7.62066 0.355394 7.57465 0.399666L0.419694 7.55462C-0.139465 8.11315 -0.139957 9.01919 0.418576 9.57835C0.418934 9.57871 0.419336 9.57911 0.419694 9.57947L7.57465 16.7344C8.13425 17.2925 9.04029 17.2912 9.59838 16.7316C9.64229 16.6876 9.6833 16.6407 9.72113 16.5913C10.1223 15.9929 10.0347 15.1927 9.51364 14.6953L5.5641 10.7314C5.35415 10.5212 5.11276 10.345 4.84861 10.2091L4.41931 10.0159H18.4716C19.2026 10.0431 19.844 9.53242 19.9813 8.81389C20.1078 8.03378 19.578 7.29883 18.7979 7.17227Z" fill="#544A4A"/>
</svg>
