<svg width="87" height="100" viewBox="0 0 87 100" fill="none" xmlns="http://www.w3.org/2000/svg">
<path d="M43.3334 0C30.4668 0 20 10.4665 20 23.3334C20 36.2002 30.4665 46.6667 43.3334 46.6667C56.2002 46.6667 66.6667 36.1999 66.6667 23.3334C66.6667 10.4668 56.2002 0 43.3334 0ZM43.3334 39.9999C34.1468 39.9999 26.6669 32.5199 26.6669 23.3334C26.6669 14.1468 34.1468 6.66685 43.3334 6.66685C52.5199 6.66685 59.9999 14.1468 59.9999 23.3334C59.9999 32.5199 52.5202 39.9999 43.3334 39.9999Z" fill="white"/>
<path d="M43.3333 53.3335C19.4399 53.3335 0 72.7734 0 96.6668C0 98.5068 1.49343 100 3.33343 100C5.17342 100 6.66685 98.5068 6.66685 96.6668C6.66685 76.4469 23.1134 60.0004 43.3333 60.0004C63.5532 60.0004 79.9997 76.4469 79.9997 96.6668C79.9997 98.5068 81.4932 100 83.3332 100C85.1732 100 86.6666 98.5068 86.6666 96.6668C86.6666 72.7734 67.2267 53.3335 43.3333 53.3335Z" fill="white"/>
</svg>
