<svg width="153" height="154" viewBox="0 0 153 154" fill="none" xmlns="http://www.w3.org/2000/svg">
<path d="M22.0577 0.751476C19.1887 2.3909 20.5549 4.16694 39.2716 22.8837L57.7151 41.3271H63.2482C67.8249 41.3271 68.9178 41.1222 69.6692 40.0976C70.6256 38.7997 70.3523 36.9554 69.0545 36.0673C68.6446 35.7941 66.4587 35.5209 64.2045 35.5209H60.106L42.3456 17.7605C32.5773 7.99225 24.3119 7.62939e-05 23.9021 7.62939e-05C23.5605 7.62939e-05 22.6725 0.341621 22.0577 0.751476Z" fill="white"/>
<path d="M127.527 0.819893C125.205 3.14241 127.937 6.96772 130.806 5.46492C132.582 4.50859 132.582 1.6396 130.874 0.683274C129.166 -0.204745 128.552 -0.204745 127.527 0.819893Z" fill="white"/>
<path d="M106.215 22.2003L92.8943 35.5206H88.7957C80.9402 35.5206 73.2896 38.6628 67.21 44.4008C63.8629 47.543 63.1115 49.524 64.6826 51.0951C66.1854 52.5979 67.8931 51.9148 71.7867 48.4311C77.1832 43.5128 80.5986 42.2149 88.6591 41.6684L95.3534 41.2586L109.289 27.3235C118.442 18.1701 123.292 12.842 123.292 11.9539C123.292 10.2462 122.062 8.88002 120.56 8.88002C120.013 8.88002 113.524 14.8912 106.215 22.2003Z" fill="white"/>
<path d="M0.19871 22.9518C-0.552691 24.5912 -0.00621718 25.2743 17.276 42.5565C34.7632 60.0437 35.173 60.5218 35.173 63.2542C35.173 66.3281 36.1294 67.626 38.3836 67.626C40.2962 67.626 41.3209 65.4401 41.3209 61.2732C41.3209 58.4725 41.0476 58.1993 22.7407 39.8241C3.20431 20.2194 1.83813 19.2631 0.19871 22.9518Z" fill="white"/>
<path d="M130.26 39.8243L111.679 58.4727V63.3909C111.679 67.3529 111.953 68.5824 113.046 69.6754C114.412 71.0416 116.256 70.9049 117.281 69.4021C117.554 68.9923 117.827 66.8064 117.827 64.5522V60.4536L135.724 42.5566C153.007 25.2744 153.553 24.5913 152.802 22.9519C151.162 19.2632 149.796 20.2195 130.26 39.8243Z" fill="white"/>
<path d="M78.8909 47.2016C77.9346 47.5431 74.1776 50.822 70.5572 54.4424C64.2044 60.7268 63.9312 60.9317 63.5213 59.2923C62.8382 56.56 59.6277 53.8959 56.5538 53.486C52.0454 52.8713 50.1327 54.4424 44.0532 63.5275C36.8124 74.3204 35.7878 77.0527 35.3779 86.0695L35.0364 93.242L17.2077 111.139C-0.00622158 128.421 -0.552695 129.104 0.198706 130.744C1.83813 134.432 3.20431 133.476 22.7407 113.871L41.3208 95.223V87.7773C41.3208 78.8971 41.799 77.5992 48.9715 66.738C52.7968 60.9317 54.0947 59.4289 55.3925 59.4289C58.1249 59.4289 58.5348 61.4782 56.5538 64.962C53.5482 70.2218 53.4116 70.9049 55.3242 72.8176C56.2123 73.7056 57.3735 74.457 57.7834 74.457C58.2615 74.457 63.5896 69.5387 69.7375 63.4592C78.686 54.579 81.0768 52.5297 82.3747 52.7346C83.5359 52.8713 84.0824 53.4177 84.219 54.6473C84.3556 56.0135 83.1261 57.6529 77.8663 62.8444C71.4452 69.1972 70.5572 70.6317 72.1966 72.2711C74.1093 74.1837 75.9536 73.0225 84.0141 64.8937C92.3478 56.4916 93.9189 55.6036 95.5584 58.1994C96.1731 59.224 94.9436 60.7268 87.5662 68.1725C82.7845 73.0225 78.8909 77.4626 78.8909 78.009C78.8909 79.2386 81.0085 81.2879 82.2381 81.2879C82.7845 81.2879 86.1317 78.214 89.8204 74.457C93.4408 70.7 96.7879 67.626 97.1978 67.626C98.1541 67.626 100.067 69.5387 100.067 70.495C100.067 70.9049 97.1295 74.1837 93.5774 77.8041C87.2246 84.2935 86.1317 86.2062 87.9077 87.9822C89.4105 89.485 90.9133 88.8019 95.2851 84.3618C98.7689 80.878 100.135 79.9217 101.433 80.0583C105.327 80.5365 103.96 82.5858 90.7084 95.7011C82.7845 103.557 76.705 109.09 74.7924 110.046C72.4015 111.207 70.079 111.685 64.7509 111.959L57.7151 112.369L43.0286 127.055C33.397 136.687 28.3421 142.22 28.3421 143.108C28.3421 144.815 29.5717 146.182 31.0745 146.182C31.6209 146.182 38.3836 139.897 46.1025 132.178L60.1059 118.175H64.2044C69.191 118.175 73.9043 116.945 78.8226 114.486C84.1507 111.754 107.103 89.0751 108.674 85.0449C109.972 81.4928 109.152 78.009 106.556 75.9598C105.19 74.8668 104.985 74.252 105.327 71.8612C105.736 68.5824 104.643 65.3035 102.594 63.869C101.433 63.0493 101.228 62.2296 101.365 59.7705C101.706 54.1008 97.3344 49.934 91.938 50.822C89.8887 51.0952 89.2739 50.9586 88.5908 49.7973C87.6345 48.2945 83.8092 46.4502 81.8282 46.5185C81.1451 46.5185 79.8472 46.86 78.8909 47.2016Z" fill="white"/>
<path d="M110.586 76.8475C110.313 77.394 110.382 78.8968 110.586 80.1264C110.86 81.2876 111.27 85.3179 111.543 88.9383L112.021 95.6326L130.464 114.076C149.796 133.408 151.162 134.432 152.802 130.744C153.553 129.104 153.006 128.421 135.724 111.139L117.827 93.2418V89.1432C117.827 84.7714 116.393 78.4187 115.095 76.7792C114.002 75.4814 111.065 75.5497 110.586 76.8475Z" fill="white"/>
<path d="M83.6725 113.393C82.3063 114.76 82.443 116.604 83.9458 117.629C84.3556 117.902 86.5415 118.175 88.7957 118.175H92.8943L110.655 135.935C120.423 145.704 128.893 153.696 129.44 153.696C130.942 153.696 132.172 152.33 132.172 150.622C132.172 149.666 125.956 143.04 113.524 130.607L94.8752 112.027H89.957C85.995 112.027 84.7655 112.3 83.6725 113.393Z" fill="white"/>
<path d="M22.0578 148.299C20.2135 149.324 20.4867 152.193 22.536 153.149C23.8339 153.696 24.4486 153.696 25.2684 153.013C26.7029 151.783 26.5662 149.119 24.9951 148.231C23.424 147.411 23.4923 147.411 22.0578 148.299Z" fill="white"/>
</svg>
