<svg width="100" height="100" viewBox="0 0 100 100" fill="none" xmlns="http://www.w3.org/2000/svg">
<path d="M22.9513 0.449192L22.1263 0.884512L22.0763 4.6191L22.0013 8.35369L17.8765 8.49116C13.3268 8.65154 12.1518 8.88065 9.25195 10.2553C6.57708 11.5384 3.27724 14.6544 1.9273 17.1746C-0.1476 21.0467 0.00239324 18.114 0.00239324 54.1768C0.00239324 84.1681 0.027392 86.3447 0.452372 87.834C2.0023 93.4473 6.90206 97.9609 13.1518 99.5876C14.6517 99.9771 16.7516 100 50 100C83.0734 100 85.3483 99.9771 86.8732 99.5876C92.073 98.2816 96.0978 95.1427 98.3727 90.6292C100.098 87.2612 99.9976 89.3003 99.9976 54.0623C99.9976 18.1369 100.148 21.0467 98.0727 17.1746C97.2227 15.5937 96.6228 14.8377 94.7729 13.1651C92.9229 11.4697 92.098 10.8969 90.3731 10.1179C87.7982 8.9723 85.6233 8.46824 83.0734 8.46824H81.1235V5.07733C81.1235 1.41148 80.9485 0.815777 79.7986 0.220076C79.1736 -0.100686 79.0486 -0.0777745 78.1737 0.334634L77.2487 0.792865L77.1237 4.57328L76.9987 8.35369H75.8238C75.1488 8.33077 63.7243 8.30786 50.4 8.28495L26.1511 8.23913L26.0761 4.66492L26.0011 1.09072L25.3012 0.540838C24.4512 -0.123598 24.0012 -0.146509 22.9513 0.449192ZM67.3242 12.0654L77.1237 12.2028V16.6248V21.0467L77.7737 21.5049C78.5486 22.0777 79.1486 22.1006 80.0986 21.6424C81.0235 21.2071 81.1235 20.703 81.1235 16.0062V12.1341H82.9484C88.5232 12.1341 93.2979 15.3646 95.3478 20.4739L95.9978 22.1006V54.0623V86.0239L95.4478 87.6277C94.1479 91.3852 91.048 94.3179 86.7232 95.8072L85.2483 96.3341L51.3749 96.4029C28.601 96.4487 16.8516 96.38 15.5017 96.2196C10.5019 95.6239 6.1271 92.1872 4.55218 87.6277L4.0022 86.0239V54.0623V22.1006L4.65217 20.4739C5.82711 17.5183 7.72702 15.3875 10.5019 13.8525C13.0018 12.4778 14.6517 12.1341 18.6515 12.1341H22.1263V16.5789V21.0467L22.7763 21.5049C23.4513 21.9861 24.0762 22.0777 25.0512 21.8486C25.9012 21.6424 26.1261 20.4968 26.1261 16.0978V12.1341L35.8257 12.0654C41.1504 12.0425 48.2001 11.9966 51.5249 11.9508C54.8248 11.9279 61.9494 11.9737 67.3242 12.0654Z" fill="white"/>
<path d="M16.6016 38.2762C15.9016 38.9178 16.1016 40.2237 17.0016 40.934L17.6515 41.4609H33.9008C50.6 41.4609 50.7999 41.4609 51.5499 40.5674C52.0249 39.9946 51.9499 38.7803 51.3749 38.2533C50.8749 37.7951 50.55 37.7951 34.0007 37.7951C17.1515 37.7951 17.1266 37.7951 16.6016 38.2762Z" fill="white"/>
<path d="M16.6267 52.9164C15.8768 53.6037 15.9767 54.6576 16.8517 55.4595L17.5767 56.124H41.8755C67.6743 56.124 67.2743 56.1469 67.7243 55.093C68.0242 54.3598 67.8743 53.3746 67.3743 52.9164C66.8743 52.4581 66.5493 52.4581 42.0005 52.4581C17.4517 52.4581 17.1267 52.4581 16.6267 52.9164Z" fill="white"/>
<path d="M16.6766 67.4883C15.8516 68.0153 15.9266 69.2754 16.8516 70.1232L17.5765 70.7876H48.375C75.6737 70.7876 79.2236 70.7418 79.8985 70.4439C81.1235 69.8482 81.4985 68.3819 80.6235 67.58C80.1235 67.1217 79.7985 67.1217 48.675 67.1217C20.6264 67.1217 17.1765 67.1676 16.6766 67.4883Z" fill="white"/>
</svg>
