<svg width="80" height="83" viewBox="0 0 80 83" fill="none" xmlns="http://www.w3.org/2000/svg">
<path d="M78.7837 75.4745L59.0623 54.9632C64.133 48.9354 66.9113 41.3512 66.9113 33.4556C66.9113 15.0085 51.9028 0 33.4556 0C15.0085 0 0 15.0085 0 33.4556C0 51.9028 15.0085 66.9113 33.4556 66.9113C40.381 66.9113 46.9804 64.8225 52.6228 60.8573L72.494 81.5241C73.3246 82.3867 74.4417 82.8623 75.6388 82.8623C76.772 82.8623 77.8469 82.4303 78.6629 81.6448C80.3968 79.9764 80.4521 77.2098 78.7837 75.4745ZM33.4556 8.72756C47.091 8.72756 58.1837 19.8203 58.1837 33.4556C58.1837 47.091 47.091 58.1837 33.4556 58.1837C19.8203 58.1837 8.72756 47.091 8.72756 33.4556C8.72756 19.8203 19.8203 8.72756 33.4556 8.72756Z" fill="white"/>
</svg>
