<svg width="14" height="14" viewBox="0 0 14 14" fill="none" xmlns="http://www.w3.org/2000/svg">
<path d="M12.4308 0H1.56918C0.702926 0 0 0.702926 0 1.56918V12.4309C0 13.2971 0.702926 14 1.56918 14H12.4309C13.2971 14 14 13.2971 14 12.4308V1.56918C14 0.702926 13.2971 0 12.4308 0ZM13.4167 12.4308C13.4167 12.9763 12.9762 13.4166 12.4309 13.4166H1.56918C1.02375 13.4166 0.583352 12.9762 0.583352 12.4308V1.56918C0.583352 1.02375 1.02378 0.583352 1.56918 0.583352H12.4309C12.9763 0.583352 13.4167 1.02378 13.4167 1.56918V12.4308Z" fill="#544A4A"/>
<path d="M5.10418 4.0542H4.375V9.8292H5.10418V4.0542Z" fill="#544A4A"/>
<path d="M9.59294 3.7915H8.86669V6.18318H8.84919C8.66837 5.85068 8.28044 5.60275 7.73794 5.60275C6.83377 5.60275 6.04919 6.39608 6.04919 7.79318C6.04919 9.07943 6.74627 9.899 7.66794 9.899C8.27169 9.899 8.71794 9.5665 8.91627 9.15818H8.93959L8.98334 9.829H9.62792C9.61042 9.55483 9.59292 9.12608 9.59292 8.78483V3.7915H9.59294ZM8.86669 8.1694C8.86962 8.2744 8.85794 8.37648 8.83169 8.47858C8.68587 9.05315 8.27752 9.32733 7.86337 9.32733C7.13712 9.32733 6.77255 8.6244 6.77255 7.77565C6.77255 6.8919 7.16047 6.18315 7.88087 6.18315C8.38255 6.18315 8.74712 6.56815 8.84044 7.0319C8.85794 7.13398 8.86669 7.23608 8.86669 7.34108V8.1694Z" fill="#544A4A"/>
</svg>
