<svg width="23" height="23" viewBox="0 0 23 23" fill="none" xmlns="http://www.w3.org/2000/svg">
<path d="M20.4221 0H2.57793C1.15481 0 0 1.15481 0 2.57793V20.4221C0 21.8452 1.15481 23 2.57793 23H20.4221C21.8452 23 23 21.8452 23 20.4221V2.57793C23 1.15481 21.8452 0 20.4221 0ZM22.0417 20.4221C22.0417 21.3181 21.3181 22.0416 20.4221 22.0416H2.57793C1.68187 22.0416 0.958363 21.3181 0.958363 20.4221V2.57793C0.958363 1.68188 1.68192 0.958363 2.57793 0.958363H20.4221C21.3182 0.958363 22.0417 1.68192 22.0417 2.57793V20.4221Z" fill="#544A4A"/>
<path d="M8.38542 6.66016H7.18749V16.1477H8.38542V6.66016Z" fill="#544A4A"/>
<path d="M15.7598 6.229H14.5667V10.1582H14.5379C14.2409 9.61194 13.6036 9.20463 12.7123 9.20463C11.2269 9.20463 9.93794 10.5079 9.93794 12.8032C9.93794 14.9163 11.0831 16.2628 12.5973 16.2628C13.5892 16.2628 14.3223 15.7165 14.6481 15.0457H14.6865L14.7583 16.1478H15.8173C15.7885 15.6973 15.7598 14.9929 15.7598 14.4323V6.229H15.7598ZM14.5667 13.4213C14.5715 13.5938 14.5523 13.7615 14.5092 13.9292C14.2696 14.8731 13.5988 15.3236 12.9184 15.3236C11.7252 15.3236 11.1263 14.1688 11.1263 12.7744C11.1263 11.3225 11.7636 10.1581 12.9471 10.1581C13.7713 10.1581 14.3702 10.7906 14.5236 11.5525C14.5523 11.7202 14.5667 11.8879 14.5667 12.0604V13.4213Z" fill="#544A4A"/>
</svg>
