<svg width="13" height="20" viewBox="0 0 13 20" fill="none" xmlns="http://www.w3.org/2000/svg">
<path d="M8.28757 14.577L11.88 9.17983C11.8918 9.16237 11.9016 9.14401 11.9093 9.12498C12.5296 8.17977 12.8571 7.10002 12.8571 5.99765C12.8571 2.69055 9.97753 0 6.43804 0C2.89854 0 0.0186892 2.69055 0.0186892 5.99765C0.0186892 7.10024 0.346713 8.18044 0.967538 9.12632C0.974727 9.14289 0.983113 9.15901 0.993176 9.17468L4.45671 14.5905C1.76807 14.9455 0 15.9785 0 17.2315C0 18.7841 2.82378 20 6.42845 20C10.0331 20 12.8569 18.7839 12.8569 17.2315C12.8571 15.9727 11.0066 14.9167 8.28757 14.577ZM1.6128 8.82386C1.04014 7.97224 0.737514 6.99502 0.737514 5.99765C0.737514 3.06084 3.29461 0.671629 6.43804 0.671629C9.58122 0.671629 12.1383 3.06084 12.1383 5.99765C12.1383 6.99547 11.8357 7.97269 11.2633 8.82386C11.2513 8.84177 11.2415 8.86036 11.2336 8.87961L7.43816 14.5811C7.38113 14.6628 7.36987 14.6814 7.30015 14.7884L6.34171 16.2284L1.64491 8.88431C1.63652 8.86349 1.62574 8.84312 1.6128 8.82386ZM6.42869 19.3284C3.06387 19.3284 0.719064 18.2231 0.719064 17.2315C0.719064 16.3316 2.48498 15.4835 4.86021 15.2209L6.02711 17.0457C6.09156 17.1462 6.20705 17.2083 6.33237 17.2092C6.33333 17.2092 6.33452 17.2092 6.33548 17.2092C6.4596 17.2092 6.57509 17.1492 6.64074 17.0507L7.86754 15.2077C10.2806 15.452 12.1381 16.3215 12.1381 17.2315C12.1383 18.2233 9.79351 19.3284 6.42869 19.3284Z" fill="#544A4A"/>
<path d="M8.76264 5.99767C8.76264 4.79523 7.71555 3.81689 6.42861 3.81689C5.14168 3.81689 4.09459 4.79523 4.09459 5.99767C4.09459 7.20011 5.14168 8.17845 6.42861 8.17845C7.71555 8.17845 8.76264 7.20011 8.76264 5.99767ZM4.81341 5.99767C4.81341 5.16553 5.53799 4.48852 6.42861 4.48852C7.31924 4.48852 8.04381 5.16553 8.04381 5.99767C8.04381 6.82982 7.31948 7.50683 6.42861 7.50683C5.53775 7.50683 4.81341 6.82982 4.81341 5.99767Z" fill="#544A4A"/>
</svg>
