<svg width="9" height="14" viewBox="0 0 9 14" fill="none" xmlns="http://www.w3.org/2000/svg">
<path d="M5.8013 10.2039L8.31601 6.42588C8.32423 6.41366 8.33111 6.40081 8.33648 6.38749C8.77072 5.72584 9 4.97001 9 4.19835C9 1.88338 6.98427 0 4.50663 0C2.02898 0 0.0130825 1.88338 0.0130825 4.19835C0.0130825 4.97017 0.242699 5.72631 0.677277 6.38843C0.682309 6.40002 0.688179 6.41131 0.695224 6.42228L3.1197 10.2133C1.23765 10.4619 0 11.185 0 12.0621C0 13.1489 1.97665 14 4.49992 14C7.02318 14 8.99983 13.1487 8.99983 12.0621C9 11.1809 7.70465 10.4417 5.8013 10.2039ZM1.12896 6.17671C0.728098 5.58057 0.51626 4.89651 0.51626 4.19835C0.51626 2.14259 2.30623 0.470141 4.50663 0.470141C6.70685 0.470141 8.49682 2.14259 8.49682 4.19835C8.49682 4.89683 8.28499 5.58088 7.88429 6.17671C7.8759 6.18924 7.86902 6.20225 7.86349 6.21573L5.20671 10.2068C5.16679 10.264 5.15891 10.277 5.1101 10.3519L4.4392 11.3598L1.15144 6.21902C1.14557 6.20444 1.13802 6.19018 1.12896 6.17671ZM4.50008 13.5299C2.14471 13.5299 0.503345 12.7562 0.503345 12.0621C0.503345 11.4321 1.73948 10.8385 3.40215 10.6546L4.21898 11.932C4.26409 12.0024 4.34494 12.0458 4.43266 12.0464C4.43333 12.0464 4.43417 12.0464 4.43484 12.0464C4.52172 12.0464 4.60256 12.0044 4.64852 11.9355L5.50728 10.6454C7.19644 10.8164 8.49666 11.425 8.49666 12.0621C8.49682 12.7563 6.85546 13.5299 4.50008 13.5299Z" fill="#544A4A"/>
<path d="M6.13385 4.19842C6.13385 3.35671 5.40088 2.67188 4.50003 2.67188C3.59917 2.67188 2.86621 3.35671 2.86621 4.19842C2.86621 5.04013 3.59917 5.72497 4.50003 5.72497C5.40088 5.72497 6.13385 5.04013 6.13385 4.19842ZM3.36939 4.19842C3.36939 3.61592 3.87659 3.14202 4.50003 3.14202C5.12347 3.14202 5.63067 3.61592 5.63067 4.19842C5.63067 4.78093 5.12363 5.25483 4.50003 5.25483C3.87642 5.25483 3.36939 4.78093 3.36939 4.19842Z" fill="#544A4A"/>
</svg>
