<svg width="50" height="50" viewBox="0 0 50 50" fill="none" xmlns="http://www.w3.org/2000/svg">
<circle cx="25" cy="25" r="25" fill="#6B9C9C"/>
<path fill-rule="evenodd" clip-rule="evenodd" d="M25 28.9146V31.509C25 31.7802 25.2319 32 25.5 32C25.7761 32 26 31.7721 26 31.509V28.9146C26.5826 28.7087 27 28.1531 27 27.5C27 26.6716 26.3284 26 25.5 26C24.6716 26 24 26.6716 24 27.5C24 28.1531 24.4174 28.7087 25 28.9146ZM24 29.5002V31.4983C24 32.3277 24.6658 33 25.5 33C26.3284 33 27 32.3288 27 31.4983V29.5002C27.6072 29.0441 28 28.3179 28 27.5C28 26.1193 26.8807 25 25.5 25C24.1193 25 23 26.1193 23 27.5C23 28.3179 23.3928 29.0441 24 29.5002ZM18 21V17.4992C18 13.3567 21.3579 10 25.5 10C29.6337 10 33 13.3575 33 17.4992V21C34.6591 21.0047 36 22.3503 36 24.0095V33.9905C36 35.6634 34.6529 37 32.9912 37H18.0088C16.3456 37 15 35.6526 15 33.9905V24.0095C15 22.3396 16.3423 21.0047 18 21ZM19 21V17.4934C19 13.9082 21.9101 11 25.5 11C29.0825 11 32 13.9072 32 17.4934V21H31V17.5091C31 14.4665 28.5314 12 25.5 12C22.4624 12 20 14.4614 20 17.5091V21H19ZM21 21V17.5009C21 15.0092 23.0147 13 25.5 13C27.9802 13 30 15.0151 30 17.5009V21H21ZM17.9974 22C16.8943 22 16 22.8971 16 24.0059V33.9941C16 35.1019 16.8909 36 17.9974 36H33.0026C34.1057 36 35 35.1029 35 33.9941V24.0059C35 22.8981 34.1091 22 33.0026 22H17.9974Z" fill="#544A4A"/>
</svg>
