<svg width="50" height="50" viewBox="0 0 50 50" fill="none" xmlns="http://www.w3.org/2000/svg">
<circle cx="25" cy="25" r="25" fill="#6B9C9C"/>
<path d="M25.0002 27.244C19.7202 27.244 15.4202 23.374 15.4202 18.622C15.4202 13.87 19.7202 10 25.0002 10C30.2802 10 34.5802 13.87 34.5802 18.622C34.5802 23.374 30.2802 27.244 25.0002 27.244ZM25.0002 12.457C21.2302 12.457 18.1602 15.22 18.1602 18.613C18.1602 22.006 21.2302 24.769 25.0002 24.769C28.7702 24.769 31.8402 22.006 31.8402 18.613C31.8402 15.22 28.7702 12.457 25.0002 12.457Z" fill="#544A4A"/>
<path d="M38.6901 37.0988H35.9501C35.9501 31.6628 31.0401 27.2438 25.0001 27.2438C18.9601 27.2438 14.0501 31.6628 14.0501 37.0988H11.3101C11.3101 30.3038 17.4501 24.7778 25.0001 24.7778C32.5501 24.7778 38.6901 30.3038 38.6901 37.0988Z" fill="#544A4A"/>
</svg>
