<svg width="25" height="25" viewBox="0 0 25 25" fill="none" xmlns="http://www.w3.org/2000/svg">
<path d="M15.6651 18.154H17.6172V22.0581C17.6172 23.6727 16.3036 24.9861 14.6891 24.9861H2.92797C1.31359 24.9861 0 23.6727 0 22.0581V2.92797C0 1.31359 1.31359 0 2.92797 0H14.6891C16.3036 0 17.6172 1.31359 17.6172 2.92797V6.83212H15.6651V2.92797C15.6651 2.38991 15.2273 1.95198 14.6891 1.95198H2.92797C2.38991 1.95198 1.95198 2.38991 1.95198 2.92797V22.0581C1.95198 22.5962 2.38991 23.0341 2.92797 23.0341H14.6891C15.2273 23.0341 15.6651 22.5962 15.6651 22.0581V18.154ZM20.3989 7.89185L19.0186 9.27219L21.2633 11.5171H8.63781V13.4691H21.2633L19.0186 15.7139L20.3989 17.0942L25 12.4931L20.3989 7.89185Z" fill="#544A4A"/>
</svg>
