<svg width="44" height="44" viewBox="0 0 44 44" fill="none" xmlns="http://www.w3.org/2000/svg">
<path d="M13.0325 33.1254C12.7348 33.4231 12.3627 33.572 11.9534 33.572C11.5441 33.572 11.172 33.4231 10.8743 33.1254L0.827833 23.0789C0.753414 23.0045 0.678996 22.9301 0.641786 22.8557C0.641786 22.8557 0.604578 22.8185 0.604578 22.7813C0.567368 22.7068 0.530158 22.6324 0.492949 22.5952C0.492949 22.558 0.492949 22.5208 0.45574 22.5208C0.418531 22.4464 0.418532 22.4092 0.381322 22.3348C0.344113 22.2231 0.344114 22.1487 0.344114 22.0371C0.344114 21.9255 0.344113 21.851 0.381322 21.7394C0.381322 21.665 0.418531 21.5906 0.45574 21.5534C0.45574 21.5161 0.455739 21.4789 0.492949 21.4789C0.530158 21.4045 0.567368 21.3301 0.604578 21.2557C0.604578 21.2557 0.604577 21.2185 0.641786 21.2185C0.678996 21.1441 0.753414 21.0696 0.827833 20.9952L10.8743 10.9487C11.4697 10.3534 12.4371 10.3534 13.0325 10.9487C13.6278 11.5441 13.6278 12.5115 13.0325 13.1068L5.59063 20.5487H32.0464C32.9023 20.5487 33.572 21.2185 33.572 22.0743C33.572 22.9301 32.9023 23.5999 32.0464 23.5999H5.59063L13.0325 31.0417C13.6278 31.5627 13.6278 32.5301 13.0325 33.1254V33.1254Z" fill="black"/>
<path d="M42.0931 43.5813H22C21.1442 43.5813 20.4745 42.9116 20.4745 42.0558V27.0604C20.4745 26.2046 21.1442 25.5348 22 25.5348C22.8559 25.5348 23.5256 26.2046 23.5256 27.0604V40.5302H40.5675V3.43251H23.5256V16.9023C23.5256 17.7581 22.8559 18.4279 22 18.4279C21.1442 18.4279 20.4745 17.7581 20.4745 16.9023V1.90693C20.4745 1.05112 21.1442 0.381348 22 0.381348H42.0931C42.9489 0.381348 43.6187 1.05112 43.6187 1.90693V42.0558C43.5814 42.9116 42.9117 43.5813 42.0931 43.5813V43.5813Z" fill="black"/>
</svg>
