<svg width="33" height="34" viewBox="0 0 33 34" fill="none" xmlns="http://www.w3.org/2000/svg">
<path d="M4.75752 0.1622C4.13871 0.5158 4.43338 0.898868 8.47032 4.93581L12.4483 8.91382H13.6417C14.6289 8.91382 14.8646 8.86962 15.0267 8.64862C15.2329 8.36868 15.174 7.97088 14.8941 7.77935C14.8057 7.72042 14.3342 7.66148 13.848 7.66148H12.964L9.13332 3.83081C7.02645 1.72394 5.24372 0.000132652 5.15532 0.000132652C5.08165 0.000132652 4.89012 0.0737995 4.75752 0.1622Z" fill="black"/>
<path d="M27.5059 0.17694C27.005 0.677874 27.5943 1.50294 28.2131 1.17881C28.5962 0.972541 28.5962 0.35374 28.2279 0.147473C27.8595 -0.0440608 27.7269 -0.0440608 27.5059 0.17694Z" fill="black"/>
<path d="M22.9091 4.7883L20.0361 7.66131H19.1521C17.4577 7.66131 15.8076 8.33904 14.4963 9.57665C13.7744 10.2544 13.6123 10.6816 13.9512 11.0205C14.2753 11.3446 14.6437 11.1973 15.4835 10.4459C16.6474 9.38511 17.3841 9.10518 19.1226 8.98731L20.5665 8.89891L23.5721 5.8933C25.5464 3.91903 26.5924 2.76983 26.5924 2.5783C26.5924 2.20996 26.3272 1.9153 26.0031 1.9153C25.8852 1.9153 24.4856 3.21183 22.9091 4.7883Z" fill="black"/>
<path d="M0.0428064 4.95056C-0.119261 5.30416 -0.00139362 5.4515 3.72615 9.17904C7.49789 12.9508 7.58629 13.0539 7.58629 13.6432C7.58629 14.3062 7.79256 14.5862 8.27876 14.5862C8.69129 14.5862 8.91229 14.1147 8.91229 13.216C8.91229 12.6119 8.85336 12.553 4.90482 8.5897C0.691074 4.36123 0.396407 4.15496 0.0428064 4.95056Z" fill="black"/>
<path d="M28.0951 8.58969L24.0876 12.6119V13.6727C24.0876 14.5272 24.1466 14.7924 24.3823 15.0282C24.677 15.3228 25.0748 15.2934 25.2958 14.9692C25.3547 14.8808 25.4136 14.4094 25.4136 13.9232V13.0392L29.2738 9.17902C33.0013 5.45148 33.1192 5.30415 32.9571 4.95055C32.6035 4.15494 32.3089 4.36121 28.0951 8.58969Z" fill="black"/>
<path d="M17.0157 10.1809C16.8094 10.2546 15.9991 10.9618 15.2182 11.7426C13.848 13.0981 13.7891 13.1423 13.7007 12.7887C13.5534 12.1994 12.8609 11.6248 12.1979 11.5364C11.2255 11.4038 10.8129 11.7426 9.50168 13.7022C7.93994 16.03 7.71894 16.6194 7.63054 18.5642L7.55687 20.1112L3.71147 23.9713C-0.00134191 27.6989 -0.119209 27.8462 0.0428582 28.1998C0.396459 28.9954 0.691126 28.7891 4.90487 24.5607L8.91234 20.5385V18.9325C8.91234 17.0172 9.01548 16.7372 10.5625 14.3946C11.3875 13.1423 11.6675 12.8182 11.9474 12.8182C12.5368 12.8182 12.6252 13.2602 12.1979 14.0116C11.5496 15.146 11.5201 15.2934 11.9327 15.7059C12.1242 15.8974 12.3747 16.0595 12.4631 16.0595C12.5662 16.0595 13.7154 14.9987 15.0414 13.6874C16.9715 11.7721 17.4872 11.3301 17.7671 11.3743C18.0176 11.4038 18.1354 11.5216 18.1649 11.7868C18.1944 12.0815 17.9292 12.4351 16.7947 13.5548C15.4098 14.925 15.2182 15.2344 15.5718 15.588C15.9844 16.0006 16.3822 15.7501 18.1207 13.9968C19.9182 12.1846 20.257 11.9931 20.6106 12.553C20.7432 12.774 20.478 13.0981 18.8868 14.704C17.8555 15.7501 17.0157 16.7078 17.0157 16.8256C17.0157 17.0908 17.4724 17.5328 17.7376 17.5328C17.8555 17.5328 18.5774 16.8698 19.373 16.0595C20.1539 15.2492 20.8758 14.5862 20.9642 14.5862C21.1705 14.5862 21.583 14.9987 21.583 15.205C21.583 15.2934 20.9495 16.0006 20.1834 16.7814C18.8132 18.1811 18.5774 18.5936 18.9605 18.9767C19.2846 19.3008 19.6088 19.1535 20.5517 18.1958C21.3031 17.4444 21.5978 17.2382 21.8777 17.2676C22.7175 17.3708 22.4228 17.8128 19.5646 20.6416C17.8555 22.3359 16.5442 23.5293 16.1317 23.7356C15.616 23.9861 15.1151 24.0892 13.9659 24.1481L12.4484 24.2365L9.28068 27.4042C7.20327 29.4816 6.113 30.675 6.113 30.8665C6.113 31.2349 6.3782 31.5295 6.70234 31.5295C6.82021 31.5295 8.27881 30.1741 9.94368 28.5092L12.964 25.4889H13.848C14.9236 25.4889 15.9402 25.2237 17.001 24.6933C18.1502 24.1039 23.1006 19.2124 23.4394 18.3432C23.7194 17.577 23.5426 16.8256 22.9827 16.3836C22.688 16.1479 22.6438 16.0153 22.7175 15.4996C22.8059 14.7924 22.5702 14.0852 22.1282 13.7758C21.8777 13.599 21.8335 13.4222 21.863 12.8918C21.9366 11.669 20.9937 10.7702 19.8298 10.9618C19.3878 11.0207 19.2552 10.9912 19.1078 10.7408C18.9016 10.4166 18.0765 10.0188 17.6492 10.0336C17.5019 10.0336 17.222 10.1072 17.0157 10.1809Z" fill="black"/>
<path d="M23.8519 16.575C23.7929 16.6929 23.8077 17.017 23.8519 17.2822C23.9108 17.5327 23.9992 18.4019 24.0581 19.1828L24.1613 20.6267L28.1393 24.6047C32.3088 28.7742 32.6035 28.9952 32.9571 28.1996C33.1191 27.846 33.0013 27.6987 29.2737 23.9711L25.4136 20.111V19.227C25.4136 18.2841 25.1042 16.9139 24.8243 16.5603C24.5885 16.2803 23.955 16.2951 23.8519 16.575Z" fill="black"/>
<path d="M18.047 24.4575C17.7524 24.7521 17.7818 25.1499 18.106 25.3709C18.1944 25.4299 18.6658 25.4888 19.152 25.4888H20.036L23.8667 29.3195C25.9736 31.4263 27.8005 33.1501 27.9184 33.1501C28.2425 33.1501 28.5077 32.8555 28.5077 32.4871C28.5077 32.2809 27.167 30.8517 24.4855 28.1703L20.4633 24.1628H19.4025C18.548 24.1628 18.2828 24.2217 18.047 24.4575Z" fill="black"/>
<path d="M4.75749 31.9861C4.35969 32.2071 4.41863 32.8259 4.86063 33.0322C5.14056 33.15 5.27316 33.15 5.44996 33.0027C5.75936 32.7375 5.7299 32.1629 5.39103 31.9714C5.05216 31.7946 5.06689 31.7946 4.75749 31.9861Z" fill="black"/>
</svg>
