<svg width="32" height="37" viewBox="0 0 32 37" fill="none" xmlns="http://www.w3.org/2000/svg">
<path d="M16 0C11.2493 0 7.38458 3.86457 7.38458 8.6154C7.38458 13.3662 11.2491 17.2308 16 17.2308C20.7508 17.2308 24.6154 13.3661 24.6154 8.6154C24.6154 3.86468 20.7508 0 16 0ZM16 14.7692C12.608 14.7692 9.84619 12.0074 9.84619 8.6154C9.84619 5.22345 12.608 2.46161 16 2.46161C19.3919 2.46161 22.1538 5.22345 22.1538 8.6154C22.1538 12.0074 19.3921 14.7692 16 14.7692Z" fill="black"/>
<path d="M16 19.6926C7.17783 19.6926 0 26.8705 0 35.6926C0 36.372 0.551422 36.9234 1.2308 36.9234C1.91019 36.9234 2.46161 36.372 2.46161 35.6926C2.46161 28.2268 8.53417 22.1542 16 22.1542C23.4658 22.1542 29.5384 28.2268 29.5384 35.6926C29.5384 36.372 30.0898 36.9234 30.7692 36.9234C31.4486 36.9234 32 36.372 32 35.6926C32 26.8705 24.8222 19.6926 16 19.6926Z" fill="black"/>
</svg>
