<svg width="31" height="20" viewBox="0 0 31 20" fill="none" xmlns="http://www.w3.org/2000/svg">
<path d="M15.3332 0C12.7599 0 10.6665 2.0933 10.6665 4.66666C10.6665 7.24001 12.7598 9.33331 15.3332 9.33331C17.9066 9.33331 19.9999 7.23995 19.9999 4.66666C19.9999 2.09336 17.9066 0 15.3332 0ZM15.3332 7.99995C13.4959 7.99995 11.9999 6.50396 11.9999 4.66666C11.9999 2.82936 13.4959 1.33337 15.3332 1.33337C17.1705 1.33337 18.6665 2.82936 18.6665 4.66666C18.6665 6.50396 17.1706 7.99995 15.3332 7.99995Z" fill="#544A4A"/>
<path d="M24.6665 5.3335C22.8292 5.3335 21.3332 6.82949 21.3332 8.66679C21.3332 10.5041 22.8292 12.0001 24.6665 12.0001C26.5038 12.0001 27.9998 10.5041 27.9998 8.66679C27.9998 6.82949 26.5038 5.3335 24.6665 5.3335ZM24.6665 10.6668C23.5638 10.6668 22.6665 9.76947 22.6665 8.66679C22.6665 7.56411 23.5638 6.6668 24.6665 6.6668C25.7692 6.6668 26.6665 7.56411 26.6665 8.66679C26.6665 9.76947 25.7691 10.6668 24.6665 10.6668Z" fill="#544A4A"/>
<path d="M6.09458 5.3335C4.25591 5.3335 2.76129 6.82949 2.76129 8.66679C2.76129 10.5041 4.25728 12.0001 6.09458 12.0001C7.93188 12.0001 9.42787 10.5041 9.42787 8.66679C9.42787 6.82949 7.93319 5.3335 6.09458 5.3335ZM6.09458 10.6668C4.9919 10.6668 4.0946 9.76947 4.0946 8.66679C4.0946 7.56411 4.9919 6.6668 6.09458 6.6668C7.19726 6.6668 8.09457 7.56411 8.09457 8.66679C8.09457 9.76947 7.1972 10.6668 6.09458 10.6668Z" fill="#544A4A"/>
<path d="M15.3332 10.6665C10.5545 10.6665 6.66656 14.5545 6.66656 19.3331C6.66656 19.7011 6.96525 19.9998 7.33325 19.9998C7.70125 19.9998 7.99993 19.7011 7.99993 19.3331C7.99993 15.2892 11.2892 11.9999 15.3332 11.9999C19.3772 11.9999 22.6665 15.2892 22.6665 19.3331C22.6665 19.7011 22.9651 19.9998 23.3331 19.9998C23.7011 19.9998 23.9998 19.7011 23.9998 19.3331C23.9998 14.5545 20.1118 10.6665 15.3332 10.6665Z" fill="#544A4A"/>
<path d="M24.6665 13.3335C23.5692 13.3335 22.4945 13.6335 21.5585 14.2002C21.2452 14.3922 21.1438 14.8015 21.3345 15.1162C21.5278 15.4309 21.9358 15.5309 22.2505 15.3402C22.9771 14.8988 23.8118 14.6668 24.6665 14.6668C27.2398 14.6668 29.3331 16.7601 29.3331 19.3335C29.3331 19.7015 29.6318 20.0001 29.9998 20.0001C30.3678 20.0001 30.6665 19.7015 30.6665 19.3335C30.6664 16.0255 27.9745 13.3335 24.6665 13.3335Z" fill="#544A4A"/>
<path d="M15.3332 0C12.7599 0 10.6665 2.0933 10.6665 4.66666C10.6665 7.24001 12.7598 9.33331 15.3332 9.33331C17.9066 9.33331 19.9999 7.23995 19.9999 4.66666C19.9999 2.09336 17.9066 0 15.3332 0ZM15.3332 7.99995C13.4959 7.99995 11.9999 6.50396 11.9999 4.66666C11.9999 2.82936 13.4959 1.33337 15.3332 1.33337C17.1705 1.33337 18.6665 2.82936 18.6665 4.66666C18.6665 6.50396 17.1706 7.99995 15.3332 7.99995Z" fill="#544A4A"/>
<path d="M24.6665 5.3335C22.8292 5.3335 21.3332 6.82949 21.3332 8.66679C21.3332 10.5041 22.8292 12.0001 24.6665 12.0001C26.5038 12.0001 27.9998 10.5041 27.9998 8.66679C27.9998 6.82949 26.5038 5.3335 24.6665 5.3335ZM24.6665 10.6668C23.5638 10.6668 22.6665 9.76947 22.6665 8.66679C22.6665 7.56411 23.5638 6.6668 24.6665 6.6668C25.7692 6.6668 26.6665 7.56411 26.6665 8.66679C26.6665 9.76947 25.7691 10.6668 24.6665 10.6668Z" fill="#544A4A"/>
<path d="M6.09458 5.3335C4.25591 5.3335 2.76129 6.82949 2.76129 8.66679C2.76129 10.5041 4.25728 12.0001 6.09458 12.0001C7.93188 12.0001 9.42787 10.5041 9.42787 8.66679C9.42787 6.82949 7.93319 5.3335 6.09458 5.3335ZM6.09458 10.6668C4.9919 10.6668 4.0946 9.76947 4.0946 8.66679C4.0946 7.56411 4.9919 6.6668 6.09458 6.6668C7.19726 6.6668 8.09457 7.56411 8.09457 8.66679C8.09457 9.76947 7.1972 10.6668 6.09458 10.6668Z" fill="#544A4A"/>
<path d="M15.3332 10.6665C10.5545 10.6665 6.66656 14.5545 6.66656 19.3331C6.66656 19.7011 6.96525 19.9998 7.33325 19.9998C7.70125 19.9998 7.99993 19.7011 7.99993 19.3331C7.99993 15.2892 11.2892 11.9999 15.3332 11.9999C19.3772 11.9999 22.6665 15.2892 22.6665 19.3331C22.6665 19.7011 22.9651 19.9998 23.3331 19.9998C23.7011 19.9998 23.9998 19.7011 23.9998 19.3331C23.9998 14.5545 20.1118 10.6665 15.3332 10.6665Z" fill="#544A4A"/>
<path d="M24.6665 13.3335C23.5692 13.3335 22.4945 13.6335 21.5585 14.2002C21.2452 14.3922 21.1438 14.8015 21.3345 15.1162C21.5278 15.4309 21.9358 15.5309 22.2505 15.3402C22.9771 14.8988 23.8118 14.6668 24.6665 14.6668C27.2398 14.6668 29.3331 16.7601 29.3331 19.3335C29.3331 19.7015 29.6318 20.0001 29.9998 20.0001C30.3678 20.0001 30.6665 19.7015 30.6665 19.3335C30.6664 16.0255 27.9745 13.3335 24.6665 13.3335Z" fill="#544A4A"/>
<path d="M9.10663 14.1988C8.17195 13.6335 7.09733 13.3335 5.99996 13.3335C2.69198 13.3335 0 16.0255 0 19.3335C0 19.7015 0.298685 20.0001 0.666683 20.0001C1.03468 20.0001 1.33337 19.7015 1.33337 19.3335C1.3333 16.7601 3.42666 14.6668 5.99996 14.6668C6.85464 14.6668 7.68926 14.8988 8.41463 15.3388C8.72794 15.5295 9.13863 15.4295 9.33063 15.1148C9.52262 14.8001 9.42125 14.3908 9.10663 14.1988Z" fill="#544A4A"/>
</svg>
