<svg width="40" height="40" viewBox="0 0 40 40" fill="none" xmlns="http://www.w3.org/2000/svg">
<path d="M19.9999 7.66337C22.0082 7.66337 23.6363 6.03528 23.6363 4.027C23.6363 2.01871 22.0082 0.390625 19.9999 0.390625C17.9916 0.390625 16.3635 2.01871 16.3635 4.027C16.3635 6.03528 17.9915 7.66337 19.9999 7.66337ZM19.9999 2.20881C21.0041 2.20881 21.8181 3.02281 21.8181 4.027C21.8181 5.03118 21.0041 5.84518 19.9999 5.84518C18.9957 5.84518 18.1817 5.03118 18.1817 4.027C18.1817 3.02281 18.9957 2.20881 19.9999 2.20881Z" fill="black"/>
<path d="M21.321 8.24984C21.3049 8.2501 21.2889 8.25054 21.2728 8.25097H18.7274C15.9921 8.17519 13.7134 10.3312 13.6376 13.0665C13.6372 13.0825 13.6368 13.0986 13.6365 13.1146V13.8419C13.6365 14.3419 14.1365 14.6146 14.6365 14.6146H25.3637C25.8637 14.6146 26.3637 14.3419 26.3637 13.8419V13.1146C26.3145 10.3787 24.0568 8.20068 21.321 8.24984ZM15.5456 12.7964C15.6365 11.4328 17.0456 10.0691 18.7273 10.0691H21.2728C22.9546 10.0691 24.3637 11.4327 24.4545 12.7964H15.5456Z" fill="black"/>
<path d="M5.22713 23.4829C5.72923 23.4829 6.13623 23.0759 6.13623 22.5738C6.13336 18.3684 8.03942 14.3891 11.318 11.7556C11.6777 11.4052 11.6852 10.8297 11.3348 10.47C11.0301 10.1572 10.5458 10.1053 10.1817 10.3465C6.46954 13.3186 4.3116 17.8184 4.31804 22.5738C4.31804 23.0759 4.72504 23.4829 5.22713 23.4829Z" fill="black"/>
<path d="M24.4301 35.7033C24.423 35.7058 24.4159 35.7084 24.4088 35.7111C21.5622 36.664 18.4827 36.664 15.6361 35.7111C15.1593 35.5625 14.6519 35.8264 14.4998 36.3021C14.3271 36.7466 14.5475 37.2471 14.9921 37.4198C15.0096 37.4266 15.0273 37.4328 15.0452 37.4384C18.2737 38.5295 21.7713 38.5295 24.9997 37.4384C25.4815 37.2665 25.7421 36.7452 25.5906 36.2566C25.423 35.7834 24.9034 35.5356 24.4301 35.7033Z" fill="black"/>
<path d="M27.9998 11.2541C31.6817 13.8462 33.8698 18.0696 33.8635 22.5723C33.8635 23.0744 34.2705 23.4814 34.7726 23.4814C35.2747 23.4814 35.6817 23.0744 35.6817 22.5723C35.6691 17.4787 33.1974 12.7046 29.0453 9.75411C28.631 9.46544 28.0613 9.56715 27.7725 9.98137C27.4838 10.3956 27.5856 10.9655 27.9998 11.2541Z" fill="black"/>
<path d="M6.36344 32.6634C8.37172 32.6634 9.99981 31.0353 9.99981 29.027C9.99981 27.0187 8.37172 25.3906 6.36344 25.3906C4.35515 25.3906 2.72707 27.0186 2.72707 29.027C2.72707 31.0354 4.35515 32.6634 6.36344 32.6634ZM6.36344 27.2088C7.36762 27.2088 8.18162 28.0228 8.18162 29.027C8.18162 30.0312 7.36762 30.8452 6.36344 30.8452C5.35925 30.8452 4.54525 30.0312 4.54525 29.027C4.54525 28.0228 5.35925 27.2088 6.36344 27.2088Z" fill="black"/>
<path d="M7.68442 33.2557C7.66832 33.256 7.65231 33.2564 7.6363 33.2568H5.09077C2.35549 33.1811 0.0767122 35.3371 0.000932673 38.0724C0.000497659 38.0884 0.000149647 38.1045 -0.000198364 38.1205V38.8477C-0.000198364 39.3477 0.499807 39.6205 0.999813 39.6205H11.7271C12.2271 39.6205 12.7271 39.3477 12.7271 38.8477V38.1205C12.678 35.3846 10.4203 33.2065 7.68442 33.2557ZM1.90899 37.8022C1.99991 36.4386 3.40901 35.0749 5.09077 35.0749H7.63622C9.31807 35.0749 10.7272 36.4385 10.818 37.8022H1.90899Z" fill="black"/>
<path d="M30 29.027C30 31.0353 31.6281 32.6634 33.6364 32.6634C35.6447 32.6634 37.2727 31.0353 37.2727 29.027C37.2727 27.0187 35.6447 25.3906 33.6364 25.3906C31.6281 25.3906 30 27.0186 30 29.027ZM35.4546 29.027C35.4546 30.0312 34.6406 30.8452 33.6364 30.8452C32.6322 30.8452 31.8182 30.0312 31.8182 29.027C31.8182 28.0228 32.6322 27.2088 33.6364 27.2088C34.6406 27.2088 35.4546 28.0228 35.4546 29.027Z" fill="black"/>
<path d="M34.9571 33.2557C34.941 33.256 34.925 33.2564 34.909 33.2568H32.3635C29.6282 33.1811 27.3495 35.3371 27.2737 38.0724C27.2732 38.0884 27.2729 38.1045 27.2726 38.1205V38.8477C27.2726 39.3477 27.7726 39.6205 28.2726 39.6205H38.9998C39.4998 39.6205 39.9998 39.3477 39.9998 38.8477V38.1205C39.9507 35.3846 37.693 33.2065 34.9571 33.2557ZM29.1817 37.8022C29.2726 36.4386 30.6817 35.0749 32.3634 35.0749H34.9089C36.5907 35.0749 37.9998 36.4385 38.0907 37.8022H29.1817Z" fill="black"/>
</svg>
