<svg width="100" height="100" viewBox="0 0 100 100" fill="none" xmlns="http://www.w3.org/2000/svg">
<path d="M37.5 0C16.8187 0 0 16.8187 0 37.5C0 63.4937 33.85 97.6438 35.2875 99.0875C35.9 99.6938 36.7 100 37.5 100C38.3 100 39.1 99.6938 39.7125 99.0875C39.7125 99.0875 42.4625 96.3438 46.3562 91.8688C47.4937 90.5688 47.3562 88.5938 46.0562 87.4563C44.7625 86.3313 42.7938 86.4625 41.6438 87.7563C40.0063 89.6313 38.5812 91.1938 37.5 92.35C30.0375 84.375 6.25 57.3563 6.25 37.5C6.25 20.2688 20.2688 6.25 37.5 6.25C54.7312 6.25 68.75 20.2688 68.75 37.5C68.75 38.3938 68.7 39.3438 68.5438 40.2938C68.2563 41.9938 69.4 43.6062 71.1062 43.8937C72.8062 44.1625 74.4188 43.0312 74.7063 41.3312C74.925 40.0312 75 38.7312 75 37.5C75 16.8187 58.1813 0 37.5 0Z" fill="white"/>
<path d="M37.5 18.75C27.1625 18.75 18.75 27.1625 18.75 37.5C18.75 47.8375 27.1625 56.25 37.5 56.25C47.8375 56.25 56.25 47.8375 56.25 37.5C56.25 27.1625 47.8375 18.75 37.5 18.75ZM37.5 50C30.6062 50 25 44.3938 25 37.5C25 30.6062 30.6062 25 37.5 25C44.3938 25 50 30.6062 50 37.5C50 44.3938 44.3938 50 37.5 50Z" fill="white"/>
<path d="M75 50C61.2125 50 50 61.2125 50 75C50 88.7875 61.2125 100 75 100C88.7875 100 100 88.7875 100 75C100 61.2125 88.7875 50 75 50ZM75 93.75C64.6625 93.75 56.25 85.3375 56.25 75C56.25 64.6625 64.6625 56.25 75 56.25C85.3375 56.25 93.75 64.6625 93.75 75C93.75 85.3375 85.3375 93.75 75 93.75Z" fill="white"/>
<path d="M84.375 71.875H78.125V65.625C78.125 63.9 76.725 62.5 75 62.5C73.275 62.5 71.875 63.9 71.875 65.625V71.875H65.625C63.9 71.875 62.5 73.275 62.5 75C62.5 76.725 63.9 78.125 65.625 78.125H71.875V84.375C71.875 86.1 73.275 87.5 75 87.5C76.725 87.5 78.125 86.1 78.125 84.375V78.125H84.375C86.1 78.125 87.5 76.725 87.5 75C87.5 73.275 86.1 71.875 84.375 71.875Z" fill="white"/>
</svg>
