<svg width="128" height="118" viewBox="0 0 128 118" fill="none" xmlns="http://www.w3.org/2000/svg">
<path d="M18.4535 0.577022C16.0533 1.83569 17.1963 3.19924 32.8547 17.569L48.2846 31.729H52.9135C56.7424 31.729 57.6568 31.5717 58.2854 30.785C59.0855 29.7886 58.8569 28.3726 57.7711 27.6908C57.4282 27.481 55.5995 27.2712 53.7136 27.2712H50.2847L35.4264 13.6357C27.2543 6.13613 20.3394 0.000133857 19.9965 0.000133857C19.7108 0.000133857 18.9679 0.262356 18.4535 0.577022Z" fill="white"/>
<path d="M106.689 0.629579C104.746 2.41269 107.032 5.34958 109.432 4.1958C110.918 3.46158 110.918 1.25891 109.49 0.52469C108.061 -0.157088 107.547 -0.157088 106.689 0.629579Z" fill="white"/>
<path d="M88.8593 17.0442L77.7155 27.2708H74.2867C67.7147 27.2708 61.3142 29.6833 56.2281 34.0886C53.4278 36.5011 52.7992 38.0219 54.1136 39.2282C55.3708 40.3819 56.7995 39.8575 60.0569 37.1828C64.5716 33.4068 67.429 32.4104 74.1724 31.9908L79.7729 31.6762L91.431 20.9775C99.0888 13.95 103.146 9.85929 103.146 9.17752C103.146 7.86641 102.118 6.81752 100.86 6.81752C100.403 6.81752 94.9741 11.4326 88.8593 17.0442Z" fill="white"/>
<path d="M0.166281 17.6213C-0.462343 18.8799 -0.00516141 19.4044 14.4532 32.6728C29.083 46.0986 29.4258 46.4657 29.4258 48.5635C29.4258 50.9235 30.2259 51.9199 32.1118 51.9199C33.7119 51.9199 34.5691 50.2417 34.5691 47.0426C34.5691 44.8924 34.3405 44.6826 19.025 30.575C2.68077 15.5235 1.53782 14.7893 0.166281 17.6213Z" fill="white"/>
<path d="M108.975 30.5752L93.4312 44.8925V48.6685C93.4312 51.7103 93.6597 52.6543 94.5741 53.4934C95.7171 54.5423 97.26 54.4374 98.1173 53.2837C98.3458 52.969 98.5744 51.2908 98.5744 49.5601V46.4134L113.547 32.673C128.005 19.4046 128.463 18.8801 127.834 17.6215C126.462 14.7895 125.32 15.5237 108.975 30.5752Z" fill="white"/>
<path d="M66.0003 36.239C65.2002 36.5012 62.0571 39.0186 59.0283 41.7981C53.7135 46.623 53.4849 46.7803 53.1421 45.5217C52.5706 43.4239 49.8846 41.3786 47.313 41.0639C43.5413 40.5919 41.9411 41.7981 36.855 48.7732C30.7973 57.0594 29.9401 59.1572 29.5972 66.0799L29.3115 71.5865L14.396 85.327C-0.00520499 98.5954 -0.462385 99.1199 0.166238 100.379C1.53778 103.211 2.68073 102.476 19.0249 87.4247L34.5691 73.1074V67.391C34.5691 60.5732 34.9691 59.5768 40.9696 51.2381C44.1699 46.7803 45.2557 45.6266 46.3415 45.6266C48.6274 45.6266 48.9703 47.1999 47.313 49.8745C44.7985 53.9128 44.6842 54.4372 46.2843 55.9057C47.0273 56.5874 47.9988 57.1643 48.3417 57.1643C48.7417 57.1643 53.1992 53.3883 58.3425 48.7208C65.8288 41.903 67.829 40.3297 68.9148 40.487C69.8863 40.5919 70.3435 41.0114 70.4578 41.9554C70.5721 43.0043 69.5434 44.263 65.143 48.2488C59.7712 53.1261 59.0283 54.2274 60.3998 55.4861C61.9999 56.9545 63.5429 56.063 70.2863 49.8221C77.2583 43.3714 78.5727 42.6897 79.9443 44.6826C80.4586 45.4692 79.4299 46.623 73.258 52.3394C69.2577 56.063 66.0003 59.4719 66.0003 59.8914C66.0003 60.8354 67.7718 62.4088 68.8005 62.4088C69.2577 62.4088 72.0579 60.0488 75.1439 57.1643C78.1727 54.2799 80.9729 51.9199 81.3158 51.9199C82.1159 51.9199 83.716 53.3883 83.716 54.1225C83.716 54.4372 81.2587 56.9545 78.287 59.7341C72.9723 64.7163 72.0579 66.1848 73.5437 67.5483C74.801 68.7021 76.0582 68.1776 79.7157 64.7688C82.6302 62.0941 83.7732 61.3599 84.859 61.4648C88.1164 61.8319 86.9734 63.4052 75.8868 73.4745C69.2577 79.5056 64.1715 83.7536 62.5714 84.4879C60.5712 85.3794 58.6282 85.7465 54.1707 85.9563L48.2845 86.271L35.9978 97.5465C27.94 104.941 23.711 109.189 23.711 109.871C23.711 111.182 24.7397 112.231 25.9969 112.231C26.4541 112.231 32.1117 107.406 38.5694 101.48L50.2847 90.7287H53.7135C57.8853 90.7287 61.8285 89.7847 65.9431 87.8967C70.4006 85.799 89.6022 68.3874 90.9166 65.2932C92.0024 62.5661 91.3166 59.8914 89.145 58.3181C88.0021 57.479 87.8306 57.007 88.1164 55.1714C88.4593 52.6541 87.5449 50.1368 85.8305 49.0354C84.859 48.4061 84.6875 47.7768 84.8018 45.8888C85.0876 41.5359 81.4301 38.3368 76.9155 39.0186C75.201 39.2283 74.6867 39.1234 74.1152 38.2319C73.3152 37.0781 70.1149 35.6621 68.4576 35.7146C67.8861 35.7146 66.8003 35.9768 66.0003 36.239Z" fill="white"/>
<path d="M92.5167 58.9999C92.2881 59.4195 92.3453 60.5733 92.5167 61.5173C92.7453 62.4088 93.0882 65.503 93.3168 68.2826L93.7168 73.4221L109.147 87.5821C125.319 102.424 126.462 103.211 127.834 100.379C128.463 99.1199 128.005 98.5955 113.547 85.327L98.5744 71.5866V68.4399C98.5744 65.0835 97.3743 60.2061 96.2885 58.9475C95.3741 57.951 92.9168 58.0035 92.5167 58.9999Z" fill="white"/>
<path d="M70.0006 87.0578C68.8576 88.1067 68.9719 89.5227 70.2292 90.3094C70.572 90.5191 72.4008 90.7289 74.2866 90.7289H77.7155L92.5739 104.364C100.746 111.864 107.832 118 108.289 118C109.547 118 110.575 116.951 110.575 115.64C110.575 114.906 105.375 109.819 94.9741 100.274L79.3728 86.0089H75.2582C71.9436 86.0089 70.9149 86.2187 70.0006 87.0578Z" fill="white"/>
<path d="M18.4535 113.857C16.9105 114.643 17.1391 116.846 18.8535 117.58C19.9393 118 20.4537 118 21.1394 117.475C22.3395 116.531 22.2252 114.486 20.9109 113.804C19.5965 113.175 19.6536 113.175 18.4535 113.857Z" fill="white"/>
</svg>
