<svg width="17" height="17" viewBox="0 0 17 17" fill="none" xmlns="http://www.w3.org/2000/svg">
<path d="M8.50006 3.15158C9.35358 3.15158 10.0455 2.44606 10.0455 1.57579C10.0455 0.705516 9.35358 0 8.50006 0C7.64653 0 6.95459 0.705516 6.95459 1.57579C6.95459 2.44606 7.64649 3.15158 8.50006 3.15158ZM8.50006 0.787895C8.92684 0.787895 9.27279 1.14063 9.27279 1.57579C9.27279 2.01094 8.92684 2.36368 8.50006 2.36368C8.07327 2.36368 7.72732 2.01094 7.72732 1.57579C7.72732 1.14063 8.07327 0.787895 8.50006 0.787895Z" fill="#544A4A"/>
<path d="M9.06156 3.40563C9.05472 3.40574 9.04792 3.40593 9.04112 3.40612H7.95931C6.79682 3.37328 5.82834 4.30757 5.79614 5.49289C5.79595 5.49983 5.7958 5.5068 5.79565 5.51374V5.82889C5.79565 6.04556 6.00816 6.16376 6.22066 6.16376H10.7797C10.9922 6.16376 11.2047 6.04556 11.2047 5.82889V5.51374C11.1838 4.32816 10.2243 3.38433 9.06156 3.40563ZM6.60702 5.37582C6.64566 4.78492 7.24452 4.19398 7.95927 4.19398H9.04108C9.75586 4.19398 10.3547 4.78488 10.3933 5.37582H6.60702Z" fill="#544A4A"/>
<path d="M2.22158 10.0066C2.43497 10.0066 2.60794 9.83022 2.60794 9.61265C2.60672 7.79028 3.4168 6.06587 4.81021 4.92467C4.96307 4.77284 4.96625 4.52344 4.81735 4.36758C4.68782 4.23201 4.48201 4.20954 4.32726 4.31405C2.7496 5.60199 1.83247 7.55193 1.83521 9.61265C1.83521 9.83022 2.00819 10.0066 2.22158 10.0066Z" fill="#544A4A"/>
<path d="M10.3829 15.3025C10.3798 15.3036 10.3768 15.3047 10.3738 15.3059C9.16398 15.7188 7.85521 15.7188 6.6454 15.3059C6.44277 15.2415 6.22712 15.3559 6.16245 15.562C6.08905 15.7546 6.18275 15.9715 6.3717 16.0463C6.37913 16.0493 6.38664 16.052 6.39425 16.0544C7.76636 16.5272 9.25283 16.5272 10.6249 16.0544C10.8297 15.9799 10.9405 15.754 10.876 15.5422C10.8048 15.3372 10.584 15.2299 10.3829 15.3025Z" fill="#544A4A"/>
<path d="M11.9001 4.70753C13.4649 5.83078 14.3948 7.66095 14.3921 9.61217C14.3921 9.82975 14.5651 10.0061 14.7785 10.0061C14.9919 10.0061 15.1648 9.82975 15.1648 9.61217C15.1595 7.40488 14.109 5.3361 12.3444 4.05751C12.1683 3.93242 11.9262 3.97649 11.8034 4.15599C11.6808 4.33549 11.724 4.58244 11.9001 4.70753Z" fill="#544A4A"/>
<path d="M2.70451 13.9851C3.55803 13.9851 4.24997 13.2796 4.24997 12.4093C4.24997 11.539 3.55803 10.8335 2.70451 10.8335C1.85099 10.8335 1.15906 11.539 1.15906 12.4093C1.15906 13.2796 1.85099 13.9851 2.70451 13.9851ZM2.70451 11.6214C3.13129 11.6214 3.47724 11.9741 3.47724 12.4093C3.47724 12.8444 3.13129 13.1972 2.70451 13.1972C2.27773 13.1972 1.93179 12.8444 1.93179 12.4093C1.93179 11.9741 2.27773 11.6214 2.70451 11.6214Z" fill="#544A4A"/>
<path d="M3.26596 14.2416C3.25912 14.2417 3.25231 14.2419 3.24551 14.2421H2.16366C1.00117 14.2092 0.0326869 15.1435 0.00048069 16.3288C0.000295809 16.3358 0.000147905 16.3427 0 16.3497V16.6648C0 16.8815 0.212502 16.9997 0.425004 16.9997H4.98409C5.1966 16.9997 5.4091 16.8815 5.4091 16.6648V16.3497C5.38824 15.1641 4.42871 14.2203 3.26596 14.2416ZM0.811405 16.2118C0.850045 15.6209 1.44891 15.0299 2.16366 15.0299H3.24547C3.96026 15.0299 4.55913 15.6208 4.59773 16.2118H0.811405Z" fill="#544A4A"/>
<path d="M12.75 12.4093C12.75 13.2796 13.4419 13.9851 14.2955 13.9851C15.149 13.9851 15.8409 13.2796 15.8409 12.4093C15.8409 11.539 15.149 10.8335 14.2955 10.8335C13.4419 10.8335 12.75 11.539 12.75 12.4093ZM15.0682 12.4093C15.0682 12.8444 14.7222 13.1972 14.2955 13.1972C13.8687 13.1972 13.5227 12.8444 13.5227 12.4093C13.5227 11.9741 13.8687 11.6214 14.2955 11.6214C14.7222 11.6214 15.0682 11.9741 15.0682 12.4093Z" fill="#544A4A"/>
<path d="M14.8567 14.2416C14.8499 14.2417 14.8431 14.2419 14.8363 14.2421H13.7545C12.592 14.2092 11.6235 15.1435 11.5913 16.3288C11.5911 16.3358 11.591 16.3427 11.5908 16.3497V16.6648C11.5908 16.8815 11.8033 16.9997 12.0158 16.9997H16.5749C16.7874 16.9997 16.9999 16.8815 16.9999 16.6648V16.3497C16.979 15.1641 16.0195 14.2203 14.8567 14.2416ZM12.4022 16.2118C12.4408 15.6209 13.0397 15.0299 13.7544 15.0299H14.8363C15.551 15.0299 16.1499 15.6208 16.1885 16.2118H12.4022Z" fill="#544A4A"/>
</svg>
