<svg width="100" height="66" viewBox="0 0 100 66" fill="none" xmlns="http://www.w3.org/2000/svg">
<path d="M49.9999 0C41.6087 0 34.7825 6.82601 34.7825 15.2174C34.7825 23.6089 41.6085 30.4349 49.9999 30.4349C58.3913 30.4349 65.2173 23.6087 65.2173 15.2174C65.2173 6.82621 58.3913 0 49.9999 0ZM49.9999 26.0869C44.0087 26.0869 39.1304 21.2087 39.1304 15.2174C39.1304 9.22621 44.0087 4.34795 49.9999 4.34795C55.9911 4.34795 60.8694 9.22621 60.8694 15.2174C60.8694 21.2087 55.9913 26.0869 49.9999 26.0869Z" fill="white"/>
<path d="M80.4347 17.3916C74.4434 17.3916 69.5652 22.2699 69.5652 28.2611C69.5652 34.2523 74.4434 39.1306 80.4347 39.1306C86.4259 39.1306 91.3041 34.2523 91.3041 28.2611C91.3041 22.2699 86.4259 17.3916 80.4347 17.3916ZM80.4347 34.7828C76.8389 34.7828 73.9129 31.8568 73.9129 28.2611C73.9129 24.6654 76.8389 21.7394 80.4347 21.7394C84.0304 21.7394 86.9564 24.6654 86.9564 28.2611C86.9564 31.8568 84.0302 34.7828 80.4347 34.7828Z" fill="white"/>
<path d="M19.8739 17.3916C13.8782 17.3916 9.00439 22.2699 9.00439 28.2611C9.00439 34.2523 13.8826 39.1306 19.8739 39.1306C25.8651 39.1306 30.7434 34.2523 30.7434 28.2611C30.7434 22.2699 25.8694 17.3916 19.8739 17.3916ZM19.8739 34.7828C16.2782 34.7828 13.3521 31.8568 13.3521 28.2611C13.3521 24.6654 16.2782 21.7394 19.8739 21.7394C23.4696 21.7394 26.3956 24.6654 26.3956 28.2611C26.3956 31.8568 23.4694 34.7828 19.8739 34.7828Z" fill="white"/>
<path d="M49.9999 34.7827C34.4173 34.7827 21.739 47.461 21.739 63.0436C21.739 64.2436 22.713 65.2176 23.913 65.2176C25.113 65.2176 26.087 64.2436 26.087 63.0436C26.087 49.8567 36.813 39.1307 49.9999 39.1307C63.1868 39.1307 73.9128 49.8567 73.9128 63.0436C73.9128 64.2436 74.8868 65.2176 76.0868 65.2176C77.2868 65.2176 78.2608 64.2436 78.2608 63.0436C78.2608 47.461 65.5826 34.7827 49.9999 34.7827Z" fill="white"/>
<path d="M80.4346 43.4785C76.8564 43.4785 73.352 44.4568 70.2998 46.3047C69.2781 46.9308 68.9476 48.2655 69.5694 49.2916C70.1997 50.3178 71.5302 50.6439 72.5563 50.022C74.9257 48.5828 77.6475 47.8263 80.4346 47.8263C88.8258 47.8263 95.652 54.6523 95.652 63.0437C95.652 64.2437 96.626 65.2177 97.826 65.2177C99.026 65.2177 100 64.2437 100 63.0437C99.9998 52.2568 91.2215 43.4785 80.4346 43.4785Z" fill="white"/>
<path d="M49.9999 0C41.6087 0 34.7825 6.82601 34.7825 15.2174C34.7825 23.6089 41.6085 30.4349 49.9999 30.4349C58.3913 30.4349 65.2173 23.6087 65.2173 15.2174C65.2173 6.82621 58.3913 0 49.9999 0ZM49.9999 26.0869C44.0087 26.0869 39.1304 21.2087 39.1304 15.2174C39.1304 9.22621 44.0087 4.34795 49.9999 4.34795C55.9911 4.34795 60.8694 9.22621 60.8694 15.2174C60.8694 21.2087 55.9913 26.0869 49.9999 26.0869Z" fill="white"/>
<path d="M80.4347 17.3916C74.4434 17.3916 69.5652 22.2699 69.5652 28.2611C69.5652 34.2523 74.4434 39.1306 80.4347 39.1306C86.4259 39.1306 91.3041 34.2523 91.3041 28.2611C91.3041 22.2699 86.4259 17.3916 80.4347 17.3916ZM80.4347 34.7828C76.8389 34.7828 73.9129 31.8568 73.9129 28.2611C73.9129 24.6654 76.8389 21.7394 80.4347 21.7394C84.0304 21.7394 86.9564 24.6654 86.9564 28.2611C86.9564 31.8568 84.0302 34.7828 80.4347 34.7828Z" fill="white"/>
<path d="M19.8739 17.3916C13.8782 17.3916 9.00439 22.2699 9.00439 28.2611C9.00439 34.2523 13.8826 39.1306 19.8739 39.1306C25.8651 39.1306 30.7434 34.2523 30.7434 28.2611C30.7434 22.2699 25.8694 17.3916 19.8739 17.3916ZM19.8739 34.7828C16.2782 34.7828 13.3521 31.8568 13.3521 28.2611C13.3521 24.6654 16.2782 21.7394 19.8739 21.7394C23.4696 21.7394 26.3956 24.6654 26.3956 28.2611C26.3956 31.8568 23.4694 34.7828 19.8739 34.7828Z" fill="white"/>
<path d="M49.9999 34.7827C34.4173 34.7827 21.739 47.461 21.739 63.0436C21.739 64.2436 22.713 65.2176 23.913 65.2176C25.113 65.2176 26.087 64.2436 26.087 63.0436C26.087 49.8567 36.813 39.1307 49.9999 39.1307C63.1868 39.1307 73.9128 49.8567 73.9128 63.0436C73.9128 64.2436 74.8868 65.2176 76.0868 65.2176C77.2868 65.2176 78.2608 64.2436 78.2608 63.0436C78.2608 47.461 65.5826 34.7827 49.9999 34.7827Z" fill="white"/>
<path d="M80.4346 43.4785C76.8564 43.4785 73.352 44.4568 70.2998 46.3047C69.2781 46.9308 68.9476 48.2655 69.5694 49.2916C70.1997 50.3178 71.5302 50.6439 72.5563 50.022C74.9257 48.5828 77.6475 47.8263 80.4346 47.8263C88.8258 47.8263 95.652 54.6523 95.652 63.0437C95.652 64.2437 96.626 65.2177 97.826 65.2177C99.026 65.2177 100 64.2437 100 63.0437C99.9998 52.2568 91.2215 43.4785 80.4346 43.4785Z" fill="white"/>
<path d="M29.6957 46.3002C26.6478 44.4568 23.1436 43.4785 19.5652 43.4785C8.77825 43.4785 0 52.2568 0 63.0437C0 64.2437 0.973979 65.2177 2.17398 65.2177C3.37398 65.2177 4.34795 64.2437 4.34795 63.0437C4.34775 54.6523 11.174 47.8263 19.5652 47.8263C22.3522 47.8263 25.0738 48.5828 27.4392 50.0176C28.4608 50.6394 29.8 50.3133 30.4261 49.2871C31.0522 48.261 30.7216 46.9263 29.6957 46.3002Z" fill="white"/>
</svg>
