<svg width="100" height="100" viewBox="0 0 100 100" fill="none" xmlns="http://www.w3.org/2000/svg">
<g clip-path="url(#clip0)">
<path d="M50.0001 19.1477C55.0208 19.1477 59.091 15.0775 59.091 10.0567C59.091 5.03603 55.0208 0.96582 50.0001 0.96582C44.9794 0.96582 40.9092 5.03603 40.9092 10.0567C40.9092 15.0775 44.9792 19.1477 50.0001 19.1477ZM50.0001 5.51128C52.5106 5.51128 54.5456 7.54628 54.5456 10.0567C54.5456 12.5672 52.5106 14.6022 50.0001 14.6022C47.4896 14.6022 45.4546 12.5672 45.4546 10.0567C45.4546 7.54628 47.4896 5.51128 50.0001 5.51128Z" fill="white"/>
<path d="M53.3021 20.6222C53.2619 20.6228 53.2219 20.6239 53.1819 20.625H46.8183C39.98 20.4355 34.2831 25.8256 34.0936 32.6638C34.0926 32.7038 34.0917 32.7441 34.0908 32.7841V34.6022C34.0908 35.8522 35.3408 36.5341 36.5908 36.5341H63.4091C64.6591 36.5341 65.9091 35.8522 65.9091 34.6022V32.7841C65.786 25.9443 60.1417 20.4993 53.3021 20.6222ZM38.8636 31.9884C39.0909 28.5794 42.6136 25.1702 46.818 25.1702H53.1816C57.3863 25.1702 60.909 28.5792 61.1361 31.9884H38.8636Z" fill="white"/>
<path d="M13.0682 58.693C14.3234 58.693 15.3409 57.6755 15.3409 56.4203C15.3337 45.9069 20.0989 35.9585 28.2954 29.3748C29.1946 28.4989 29.2133 27.0601 28.3374 26.1609C27.5755 25.3788 26.3648 25.2491 25.4546 25.8521C16.1742 33.2823 10.7794 44.5318 10.7954 56.4203C10.7954 57.6755 11.8129 58.693 13.0682 58.693Z" fill="white"/>
<path d="M61.0759 89.2414C61.0581 89.2477 61.0402 89.2542 61.0226 89.261C53.906 91.6431 46.2073 91.6431 39.0907 89.261C37.8988 88.8895 36.6303 89.5492 36.2498 90.7383C35.8181 91.8498 36.3693 93.1009 37.4807 93.5326C37.5244 93.5496 37.5686 93.5652 37.6134 93.5791C45.6847 96.3069 54.4287 96.3069 62.4997 93.5791C63.7043 93.1494 64.3559 91.8463 63.977 90.6245C63.5581 89.4417 62.2591 88.8223 61.0759 89.2414Z" fill="white"/>
<path d="M70.0002 28.1251C79.2049 34.6053 84.675 45.1637 84.6593 56.4206C84.6593 57.6758 85.6768 58.6933 86.9321 58.6933C88.1873 58.6933 89.2048 57.6758 89.2048 56.4206C89.1732 43.6864 82.9941 31.7513 72.6138 24.375C71.5782 23.6533 70.1538 23.9076 69.4318 24.9432C68.7102 25.9787 68.9646 27.4034 70.0002 28.1251Z" fill="white"/>
<path d="M15.9093 81.6477C20.93 81.6477 25.0002 77.5775 25.0002 72.5568C25.0002 67.536 20.93 63.4658 15.9093 63.4658C10.8886 63.4658 6.81836 67.5358 6.81836 72.5568C6.81836 77.5777 10.8886 81.6477 15.9093 81.6477ZM15.9093 68.0113C18.4198 68.0113 20.4548 70.0463 20.4548 72.5568C20.4548 75.0672 18.4198 77.1022 15.9093 77.1022C13.3988 77.1022 11.3638 75.0672 11.3638 72.5568C11.3638 70.0463 13.3988 68.0113 15.9093 68.0113Z" fill="white"/>
<path d="M19.2113 83.1222C19.1711 83.1228 19.131 83.1239 19.091 83.125H12.7272C5.88898 82.9355 0.192032 88.3256 0.00258345 95.1638C0.00149592 95.2038 0.000625888 95.2441 -0.000244141 95.2841V97.1022C-0.000244141 98.3522 1.24977 99.0341 2.49978 99.0341H29.318C30.568 99.0341 31.818 98.3522 31.818 97.1022V95.2841C31.6953 88.4443 26.051 82.9993 19.2113 83.1222ZM4.77273 94.4884C5.00003 91.0794 8.52277 87.6702 12.7272 87.6702H19.0908C23.2954 87.6702 26.8182 91.0792 27.0452 94.4884H4.77273Z" fill="white"/>
<path d="M75 72.5568C75 77.5775 79.0702 81.6477 84.0909 81.6477C89.1116 81.6477 93.1819 77.5775 93.1819 72.5568C93.1819 67.536 89.1116 63.4658 84.0909 63.4658C79.0702 63.4658 75 67.5358 75 72.5568ZM88.6364 72.5568C88.6364 75.0672 86.6014 77.1022 84.0909 77.1022C81.5805 77.1022 79.5455 75.0672 79.5455 72.5568C79.5455 70.0463 81.5805 68.0113 84.0909 68.0113C86.6014 68.0113 88.6364 70.0463 88.6364 72.5568Z" fill="white"/>
<path d="M87.393 83.1222C87.3527 83.1228 87.3127 83.1239 87.2727 83.125H80.9091C74.0709 82.9355 68.3739 88.3256 68.1845 95.1638C68.1834 95.2038 68.1825 95.2441 68.1816 95.2841V97.1022C68.1816 98.3522 69.4317 99.0341 70.6817 99.0341H97.4999C98.7499 99.0341 99.9999 98.3522 99.9999 97.1022V95.2841C99.877 88.4443 94.2327 82.9993 87.393 83.1222ZM72.9544 94.4884C73.1817 91.0794 76.7044 87.6702 80.9089 87.6702H87.2725C91.4771 87.6702 94.9998 91.0792 95.2269 94.4884H72.9544Z" fill="white"/>
</g>
<defs>
<clipPath id="clip0">
<rect width="100" height="100" fill="white"/>
</clipPath>
</defs>
</svg>
