<svg width="40" height="30" viewBox="0 0 40 30" fill="none" xmlns="http://www.w3.org/2000/svg">
<path d="M31.6666 11.7089V3.33336C31.6666 1.495 30.1717 0 28.3333 0H3.33328C1.49492 0 0 1.49492 0 3.33336V20C0 21.8384 1.49492 23.3334 3.33336 23.3334H22.022C23.1139 27.175 26.6463 30 30.8334 30C32.4447 30 34.0291 29.576 35.4175 28.7728C35.8155 28.5425 35.9522 28.033 35.721 27.6343C35.4907 27.2355 34.9805 27.098 34.5825 27.3308C33.448 27.9867 32.1516 28.3334 30.8333 28.3334C26.6975 28.3334 23.3333 24.9691 23.3333 20.8334C23.3333 16.6977 26.6976 13.3334 30.8333 13.3334C34.969 13.3334 38.3333 16.6977 38.3333 20.8334V21.6667C38.3333 22.5855 37.5854 23.3334 36.6666 23.3334C35.7479 23.3334 35 22.5855 35 21.6667V18.3334C35 17.8727 34.6273 17.5 34.1666 17.5C33.9425 17.5 33.7411 17.5907 33.5915 17.7344C32.8549 17.078 31.8951 16.6666 30.8333 16.6666C28.5359 16.6666 26.6666 18.5359 26.6666 20.8333C26.6666 23.1306 28.5359 25 30.8334 25C32.0752 25 33.1795 24.4429 33.9435 23.578C34.5472 24.4355 35.5404 25 36.6667 25C38.5051 25 40 23.5051 40 21.6666V20.8333C40 16.0601 36.3316 12.1319 31.6666 11.7089ZM3.33336 1.66664H28.3334C28.368 1.66664 28.3971 1.68437 28.4313 1.68648L16.5186 11.4648C16.0946 11.7318 15.4802 11.6764 15.2043 11.5072L3.23641 1.68633C3.27023 1.6843 3.29898 1.66664 3.33336 1.66664ZM30 11.7089C25.3351 12.1319 21.6666 16.0601 21.6666 20.8334C21.6666 21.1146 21.6839 21.3918 21.7088 21.6667H3.33336C2.41461 21.6667 1.66672 20.9188 1.66672 20.0001V3.33336C1.66672 3.09734 1.71883 2.87445 1.80773 2.67086L14.2205 12.85C14.7055 13.1666 15.263 13.3334 15.8334 13.3334C16.382 13.3334 16.9182 13.1788 17.3902 12.8859C17.4374 12.8606 17.4822 12.8305 17.5245 12.7955L29.8589 2.6707C29.9479 2.87445 30.0001 3.09734 30.0001 3.33344V11.7089H30ZM30.8334 23.3334C29.4548 23.3334 28.3334 22.212 28.3334 20.8334C28.3334 19.4548 29.4548 18.3334 30.8334 18.3334C32.212 18.3334 33.3334 19.4548 33.3334 20.8334C33.3334 22.212 32.212 23.3334 30.8334 23.3334Z" fill="#544A4A"/>
</svg>
