<svg width="20" height="24" viewBox="0 0 20 24" fill="none" xmlns="http://www.w3.org/2000/svg">
<path d="M9.99998 0C7.03078 0 4.61536 2.41535 4.61536 5.38463C4.61536 8.3539 7.03071 10.7693 9.99998 10.7693C12.9693 10.7693 15.3846 8.35383 15.3846 5.38463C15.3846 2.41543 12.9693 0 9.99998 0ZM9.99998 9.23075C7.88001 9.23075 6.15386 7.5046 6.15386 5.38463C6.15386 3.26466 7.88001 1.53851 9.99998 1.53851C12.12 1.53851 13.8461 3.26466 13.8461 5.38463C13.8461 7.5046 12.12 9.23075 9.99998 9.23075Z" fill="#544A4A"/>
<path d="M10 12.3076C4.48614 12.3076 0 16.7938 0 22.3076C0 22.7322 0.344639 23.0769 0.769253 23.0769C1.19387 23.0769 1.53851 22.7322 1.53851 22.3076C1.53851 17.6415 5.33386 13.8461 10 13.8461C14.6661 13.8461 18.4615 17.6415 18.4615 22.3076C18.4615 22.7322 18.8061 23.0769 19.2307 23.0769C19.6554 23.0769 20 22.7322 20 22.3076C20 16.7938 15.5139 12.3076 10 12.3076Z" fill="#544A4A"/>
</svg>
