<svg width="30" height="29" viewBox="0 0 30 29" fill="none" xmlns="http://www.w3.org/2000/svg">
<path d="M3.25063 0.75363C3.18308 0.825846 3.06893 0.976685 2.99263 1.08035C1.57452 2.96088 -0.120233 5.85186 0.00672779 8.64208C0.222212 13.314 6.52715 19.5234 8.45486 21.3154C10.3831 23.1069 17.0364 28.9418 21.7071 28.8149C22.4858 28.7956 23.311 28.632 24.159 28.328C26.1164 27.6262 27.8833 26.2914 29.0056 25.3089C29.0056 25.3089 29.2473 25.1033 29.3405 25.0043C29.5752 24.7509 29.761 24.3811 29.9083 23.8739C29.9834 23.6147 29.9997 23.3416 29.9997 23.1587C29.9997 22.9549 29.9794 22.56 29.8454 22.2007C29.662 21.7091 29.4517 21.3574 29.2001 21.1209C29.0138 20.948 24.8025 17.6487 24.7757 17.6301L24.7437 17.6091C24.5154 17.4338 24.2772 17.297 24.0349 17.202C23.4001 16.9533 22.6972 16.9434 22.0548 17.1729C21.6465 17.3191 21.2791 17.5608 20.9954 17.8671L19.5482 19.4163C19.4125 19.5619 19.1603 19.7127 19.0712 19.7343C18.9775 19.7517 18.9122 19.7564 18.8703 19.7575L9.15722 10.7311C9.13392 10.709 9.12227 10.6874 9.11587 10.6723C9.12053 10.6583 9.12635 10.6461 9.12926 10.6368C9.16479 10.5645 9.33252 10.3351 9.54218 10.108L10.9743 8.55764C11.732 7.74288 11.9201 6.4756 11.4379 5.48728C11.266 5.13494 11.0308 4.8717 10.9219 4.74765L10.8654 4.67776C10.8374 4.64573 7.29183 0.754794 7.13283 0.608615C6.73856 0.242292 6.11773 0.04428 5.23541 0.00234806C4.74504 -0.0209475 4.13004 0.123485 3.77303 0.345375C3.54357 0.489225 3.37177 0.623175 3.25063 0.75363ZM5.92554 1.87356C6.12414 2.07507 9.35115 5.60958 9.52005 5.79478L9.63885 5.93863C9.68719 5.9928 9.80076 6.12034 9.86715 6.25545C10.0395 6.60955 9.97198 7.0708 9.69243 7.37189L8.25859 8.92396C8.09086 9.10508 7.68319 9.56866 7.52129 9.95479C7.41413 10.2122 7.36346 10.4364 7.36288 10.6967C7.38035 11.1941 7.59117 11.6577 7.96274 12.0077L17.7737 21.125C18.147 21.4715 18.6898 21.5822 19.3875 21.4535C19.9267 21.3539 20.5109 20.9462 20.8254 20.6096L22.2749 19.0575C22.3716 18.9533 22.4997 18.8706 22.6442 18.8182C22.8853 18.732 23.1602 18.736 23.3978 18.8292C23.5364 18.8834 23.6517 18.9737 23.6896 19.0034C23.7257 19.0313 23.7548 19.0517 23.781 19.068C24.1846 19.3807 27.8059 22.2269 28.0021 22.3923C28.0027 22.3934 28.0883 22.4895 28.2089 22.8116C28.2258 22.857 28.2526 22.991 28.2526 23.1581C28.2526 23.2787 28.2392 23.3573 28.2304 23.3858C28.1396 23.698 28.0645 23.8075 28.0645 23.8098C28.008 23.8663 27.8903 23.9636 27.8705 23.9804C26.8461 24.8767 25.269 26.0736 23.569 26.6827C22.8969 26.9238 22.2563 27.0531 21.6623 27.0677C18.4714 27.1545 13.1938 23.3328 9.64468 20.0348C6.09502 16.7373 1.89891 11.7526 1.75215 8.56171C1.64499 6.26128 3.14114 3.78555 4.37289 2.15136L4.42007 2.08846C4.44744 2.05119 4.49694 1.9813 4.52257 1.95102C4.56625 1.90967 4.63148 1.86949 4.68331 1.83687C4.76077 1.79727 5.00129 1.74136 5.15155 1.74893C5.66754 1.77397 5.90632 1.86657 5.92554 1.87356Z" fill="#544A4A"/>
</svg>
