<svg width="20" height="9" viewBox="0 0 20 9" fill="none" xmlns="http://www.w3.org/2000/svg">
<path d="M0.357359 8.19338C0.422293 8.21817 0.488998 8.22983 0.554596 8.22983C0.777956 8.22983 0.988623 8.09377 1.07282 7.87255L1.6027 6.48126H5.13335L5.65784 7.871C5.76594 8.15752 6.08597 8.30229 6.37242 8.19405C6.65894 8.08587 6.80349 7.766 6.69539 7.47947L4.04585 0.458746C4.044 0.453654 4.04201 0.448637 4.03995 0.443619C3.92911 0.174068 3.6693 0 3.37784 0C3.37762 0 3.37739 0 3.37725 0C3.08556 0.000221367 2.82567 0.174806 2.71521 0.4448C2.71351 0.449006 2.71182 0.453211 2.71027 0.457417L0.0364505 7.47785C-0.0725358 7.76408 0.0711313 8.0844 0.357359 8.19338V8.19338ZM3.37614 1.82502L4.71489 5.37228H2.02514L3.37614 1.82502Z" fill="#544A4A"/>
<path d="M19.4454 1.14128C19.7517 1.14128 19.9999 0.892977 19.9999 0.586752C19.9999 0.280527 19.7517 0.0322266 19.4454 0.0322266H16.4724C16.1661 0.0322266 15.9178 0.280527 15.9178 0.586752V7.6424C15.9178 7.94862 16.1661 8.19692 16.4724 8.19692H19.4454C19.7517 8.19692 19.9999 7.94862 19.9999 7.6424C19.9999 7.33617 19.7517 7.08787 19.4454 7.08787H17.0269V4.66906H19.2262C19.5325 4.66906 19.7807 4.42076 19.7807 4.11454C19.7807 3.80831 19.5325 3.56001 19.2262 3.56001H17.0269V1.1412H19.4454V1.14128Z" fill="#544A4A"/>
<path d="M11.167 1.10897C11.7693 1.10897 12.3503 1.28636 12.8472 1.62203C13.101 1.79351 13.4457 1.72666 13.6171 1.4729C13.7885 1.21914 13.7218 0.874473 13.468 0.703061C12.7871 0.243135 11.9914 0 11.167 0C8.89803 0 7.05212 1.8459 7.05212 4.11484C7.05212 6.38378 8.89803 8.22968 11.167 8.22968C13.303 8.22968 14.7949 6.53762 14.7949 4.11484C14.7949 3.80862 14.5466 3.56032 14.2403 3.56032H12.1102C11.8039 3.56032 11.5557 3.80862 11.5557 4.11484C11.5557 4.42106 11.8039 4.66936 12.1102 4.66936H13.6551C13.4479 6.46642 12.2264 7.1207 11.1669 7.1207C9.50944 7.1207 8.16102 5.77229 8.16102 4.11484C8.1611 2.45739 9.50952 1.10897 11.167 1.10897V1.10897Z" fill="#544A4A"/>
</svg>
