<svg width="31" height="38" viewBox="0 0 31 38" fill="none" xmlns="http://www.w3.org/2000/svg">
<path d="M30.0215 8.76907H22.3334C22.19 8.76907 22.0525 8.71212 21.9512 8.61075C21.8498 8.50938 21.7928 8.37189 21.7928 8.22853V0.540425C21.7929 0.433533 21.8246 0.329048 21.884 0.240177C21.9434 0.151307 22.0278 0.0820427 22.1265 0.04114C22.2253 0.000237271 22.334 -0.0104671 22.4388 0.0103803C22.5436 0.0312276 22.64 0.0826905 22.7155 0.158263L30.4037 7.84637C30.4792 7.92197 30.5307 8.01827 30.5515 8.12311C30.5724 8.22795 30.5617 8.33662 30.5208 8.43537C30.4799 8.53413 30.4106 8.61854 30.3217 8.67794C30.2329 8.73733 30.1284 8.76905 30.0215 8.76907V8.76907ZM22.8739 7.68799H28.7161L22.8739 1.84529V7.68799Z" fill="#544A4A"/>
<path d="M30.0216 37.8378H0.540541C0.39718 37.8378 0.259692 37.7809 0.158321 37.6795C0.0569497 37.5781 0 37.4407 0 37.2973V0.540541C0 0.39718 0.0569497 0.259692 0.158321 0.158321C0.259692 0.0569496 0.39718 0 0.540541 0H22.3335C22.4769 3.06148e-05 22.6143 0.0570003 22.7157 0.158378L30.4038 7.84649C30.5052 7.94783 30.5621 8.0853 30.5622 8.22865V37.2973C30.5622 37.4407 30.5052 37.5781 30.4038 37.6795C30.3025 37.7809 30.165 37.8378 30.0216 37.8378V37.8378ZM1.08108 36.7568H29.4811V8.45243L22.1097 1.08108H1.08108V36.7568Z" fill="#544A4A"/>
<path d="M14.6037 13.3001C12.4832 13.3001 10.6924 11.3152 10.6924 8.9655C10.6924 6.40442 12.3005 4.61523 14.6037 4.61523C16.907 4.61523 18.5151 6.40442 18.5151 8.9655C18.5151 11.3152 16.7243 13.3001 14.6037 13.3001V13.3001ZM14.6037 5.69632C12.9108 5.69632 11.7735 7.01037 11.7735 8.9655C11.7735 10.7293 13.0708 12.219 14.6037 12.219C16.1367 12.219 17.434 10.7293 17.434 8.9655C17.434 7.01037 16.2967 5.69632 14.6037 5.69632V5.69632Z" fill="#544A4A"/>
<path d="M21.0211 20.1227H8.18971C8.04635 20.1227 7.90886 20.0658 7.80749 19.9644C7.70612 19.863 7.64917 19.7256 7.64917 19.5822V18.3195C7.67567 17.1071 8.1749 15.953 9.04034 15.1036C9.90578 14.2541 11.0689 13.7764 12.2816 13.7725H12.6967C12.8075 13.7724 12.9156 13.8064 13.0065 13.8698C13.4754 14.197 14.0335 14.3725 14.6054 14.3725C15.1772 14.3725 15.7353 14.197 16.2043 13.8698C16.2951 13.8064 16.4033 13.7724 16.514 13.7725H16.9227C18.1342 13.7766 19.2964 14.2527 20.1625 15.0998C21.0286 15.9468 21.5305 17.0981 21.5616 18.3092V19.5822C21.5616 19.7256 21.5047 19.863 21.4033 19.9644C21.3019 20.0658 21.1644 20.1227 21.0211 20.1227ZM8.73025 19.0417H20.4805V18.3244C20.4657 17.3933 20.0834 16.5059 19.4169 15.8556C18.7504 15.2053 17.8538 14.8449 16.9227 14.853H16.6778C16.0575 15.2444 15.3389 15.4522 14.6054 15.4522C13.8719 15.4522 13.1533 15.2444 12.533 14.853H12.2816C11.3534 14.8547 10.4625 15.219 9.79909 15.8682C9.13565 16.5174 8.7521 17.4002 8.73025 18.3281V19.0417Z" fill="#544A4A"/>
<path d="M25.9567 23.4234H4.60536C4.462 23.4234 4.32451 23.3664 4.22314 23.265C4.12177 23.1637 4.06482 23.0262 4.06482 22.8828C4.06482 22.7395 4.12177 22.602 4.22314 22.5006C4.32451 22.3992 4.462 22.3423 4.60536 22.3423H25.9567C26.1001 22.3423 26.2376 22.3992 26.3389 22.5006C26.4403 22.602 26.4973 22.7395 26.4973 22.8828C26.4973 23.0262 26.4403 23.1637 26.3389 23.265C26.2376 23.3664 26.1001 23.4234 25.9567 23.4234Z" fill="#544A4A"/>
<path d="M25.9567 28.3321H4.60536C4.462 28.3321 4.32451 28.2751 4.22314 28.1737C4.12177 28.0724 4.06482 27.9349 4.06482 27.7915C4.06482 27.6482 4.12177 27.5107 4.22314 27.4093C4.32451 27.3079 4.462 27.251 4.60536 27.251H25.9567C26.1001 27.251 26.2376 27.3079 26.3389 27.4093C26.4403 27.5107 26.4973 27.6482 26.4973 27.7915C26.4973 27.9349 26.4403 28.0724 26.3389 28.1737C26.2376 28.2751 26.1001 28.3321 25.9567 28.3321Z" fill="#544A4A"/>
<path d="M25.9567 33.2398H4.60536C4.462 33.2398 4.32451 33.1828 4.22314 33.0814C4.12177 32.9801 4.06482 32.8426 4.06482 32.6992C4.06482 32.5559 4.12177 32.4184 4.22314 32.317C4.32451 32.2156 4.462 32.1587 4.60536 32.1587H25.9567C26.1001 32.1587 26.2376 32.2156 26.3389 32.317C26.4403 32.4184 26.4973 32.5559 26.4973 32.6992C26.4973 32.8426 26.4403 32.9801 26.3389 33.0814C26.2376 33.1828 26.1001 33.2398 25.9567 33.2398Z" fill="#544A4A"/>
</svg>
