<svg width="13" height="17" viewBox="0 0 13 17" fill="none" xmlns="http://www.w3.org/2000/svg">
<path d="M12.4517 12.5045L11.08 8.01092L11.8185 7.04971C12.2675 6.48266 12.1816 5.6461 11.6258 5.18242L10.195 3.98892C9.72539 3.5971 9.12981 3.38128 8.51827 3.38128H8.35394C8.5826 3.03381 8.71606 2.61864 8.71606 2.17247C8.71606 0.956278 7.72658 -0.0332031 6.51039 -0.0332031C5.29419 -0.0332031 4.30471 0.956278 4.30471 2.17247C4.30471 2.61851 4.43817 3.03381 4.6667 3.38128H4.5025C3.89084 3.38128 3.29538 3.5971 2.82574 3.98879L1.39489 5.18242C0.838997 5.6461 0.753136 6.48279 1.20229 7.04984L1.84819 7.88952L0.589844 12.5045H3.62897V15.277C3.62897 16.2087 4.38707 16.9668 5.31896 16.9668C5.78342 16.9668 6.20455 16.7784 6.51039 16.4741C6.81609 16.7784 7.23735 16.9668 7.70181 16.9668C8.63357 16.9668 9.39167 16.2087 9.39167 15.277V12.5045H12.4517ZM11.105 11.5076H9.39167V10.2084L10.3341 8.98185L11.105 11.5076ZM5.30158 2.17247C5.30158 1.50595 5.84386 0.963671 6.51039 0.963671C7.17678 0.963671 7.71906 1.50595 7.71906 2.17247C7.71906 2.83861 7.17756 3.38063 6.51155 3.38128H6.50909C5.84308 3.38063 5.30158 2.83861 5.30158 2.17247ZM2.03353 5.94791L3.46425 4.75441C3.75504 4.51174 4.12378 4.37815 4.5025 4.37815H6.50909H6.51039H6.51168H8.51827C8.897 4.37815 9.2656 4.51174 9.55652 4.75441L10.9872 5.94791C11.1313 6.06801 11.1534 6.28513 11.0363 6.43182L9.39465 8.5685V5.73767H8.39765V7.77448L4.62598 7.77668V5.74091H3.6291V8.5698L1.99021 6.43896L1.98464 6.43182C1.86752 6.28513 1.88944 6.06801 2.03353 5.94791V5.94791ZM1.89488 11.5076L2.61109 8.88134L3.62897 10.2049V11.5076H1.89488ZM7.70181 15.97C7.31971 15.97 7.00882 15.6591 7.00882 15.277V10.3421H6.01195V15.277C6.01195 15.6591 5.70106 15.97 5.31896 15.97C4.93674 15.97 4.62598 15.6591 4.62598 15.277V8.77368L8.3948 8.77135V15.277C8.3948 15.6591 8.08391 15.97 7.70181 15.97Z" fill="#544A4A"/>
</svg>
