<svg width="17" height="23" viewBox="0 0 17 23" fill="none" xmlns="http://www.w3.org/2000/svg">
<path d="M16.5521 16.9179L14.6963 10.8383L15.6954 9.53785C16.3029 8.77066 16.1868 7.63884 15.4347 7.01151L13.499 5.39678C12.8636 4.86666 12.0578 4.57467 11.2304 4.57467H11.0081C11.3175 4.10457 11.498 3.54287 11.498 2.93923C11.498 1.29379 10.1593 -0.0449219 8.5139 -0.0449219C6.86845 -0.0449219 5.52974 1.29379 5.52974 2.93923C5.52974 3.54269 5.71031 4.10457 6.0195 4.57467H5.79735C4.9698 4.57467 4.16419 4.86666 3.52879 5.3966L1.59293 7.01151C0.84084 7.63884 0.724675 8.77084 1.33235 9.53802L2.20622 10.6741L0.50375 16.9179H4.61551V20.6688C4.61551 21.9295 5.64117 22.9551 6.90197 22.9551C7.53035 22.9551 8.10012 22.7002 8.5139 22.2885C8.92749 22.7002 9.49744 22.9551 10.1258 22.9551C11.3864 22.9551 12.4121 21.9295 12.4121 20.6688V16.9179H16.5521ZM14.7301 15.5691H12.4121V13.8114L13.6871 12.1519L14.7301 15.5691ZM6.87846 2.93923C6.87846 2.03746 7.61212 1.30379 8.5139 1.30379C9.41549 1.30379 10.1492 2.03746 10.1492 2.93923C10.1492 3.84048 9.41655 4.57379 8.51547 4.57467H8.51214C7.61107 4.57379 6.87846 3.84048 6.87846 2.93923ZM2.45698 8.04717L4.39266 6.43244C4.78608 6.10412 5.28495 5.92338 5.79735 5.92338H8.51214H8.5139H8.51565H11.2304C11.7428 5.92338 12.2415 6.10412 12.6351 6.43244L14.5708 8.04717C14.7658 8.20966 14.7956 8.50341 14.6371 8.70188L12.4161 11.5927V7.76273H11.0673V10.5184L5.9644 10.5214V7.76711H4.61569V11.5944L2.39837 8.71153L2.39082 8.70188C2.23237 8.50341 2.26202 8.20966 2.45698 8.04717V8.04717ZM2.26939 15.5691L3.23837 12.0159L4.61551 13.8067V15.5691H2.26939ZM10.1258 21.6064C9.60887 21.6064 9.18825 21.1858 9.18825 20.6688V13.9923H7.83954V20.6688C7.83954 21.1858 7.41892 21.6064 6.90197 21.6064C6.38484 21.6064 5.9644 21.1858 5.9644 20.6688V11.8703L11.0634 11.8671V20.6688C11.0634 21.1858 10.6428 21.6064 10.1258 21.6064Z" fill="#544A4A"/>
</svg>
