<svg width="53" height="53" viewBox="0 0 53 53" fill="none" xmlns="http://www.w3.org/2000/svg">
<rect width="53" height="53" rx="15" fill="#6B9C9C"/>
<path d="M24.239 34.488C26.347 34.488 28.2944 33.8455 29.9206 32.7614L35.803 38.6438C36.265 39.1056 37.0279 39.1056 37.5095 38.6438L38.6539 37.4995C39.1156 37.0377 39.1156 36.2748 38.6539 35.793L32.7514 29.9306C33.8353 28.3044 34.478 26.357 34.478 24.249C34.478 18.6075 29.8805 14.01 24.239 14.01C18.5975 14.01 14 18.6075 14 24.249C14 29.8903 18.5774 34.488 24.239 34.488ZM24.239 18.0253C27.6721 18.0253 30.4627 20.8159 30.4627 24.249C30.4627 27.6821 27.6721 30.4727 24.239 30.4727C20.8059 30.4727 18.0153 27.6821 18.0153 24.249C18.0153 20.8159 20.8059 18.0253 24.239 18.0253Z" fill="white"/>
</svg>
