<svg width="25" height="25" viewBox="0 0 25 25" fill="none" xmlns="http://www.w3.org/2000/svg">
<path d="M10.239 20.478C12.347 20.478 14.2944 19.8355 15.9206 18.7514L21.803 24.6338C22.265 25.0956 23.0279 25.0956 23.5095 24.6338L24.6539 23.4894C25.1156 23.0277 25.1156 22.2648 24.6539 21.7829L18.7514 15.9206C19.8353 14.2944 20.478 12.347 20.478 10.239C20.478 4.59751 15.8805 0 10.239 0C4.59751 0 0 4.59751 0 10.239C0 15.8803 4.57743 20.478 10.239 20.478ZM10.239 4.01529C13.6721 4.01529 16.4627 6.80592 16.4627 10.239C16.4627 13.6721 13.6721 16.4627 10.239 16.4627C6.80592 16.4627 4.01529 13.6721 4.01529 10.239C4.01529 6.80592 6.80592 4.01529 10.239 4.01529Z" fill="white"/>
</svg>
