<svg width="33" height="35" viewBox="0 0 33 35" fill="none" xmlns="http://www.w3.org/2000/svg">
<path d="M32.4983 31.1332L24.3632 22.6723C26.4549 20.1859 27.6009 17.0574 27.6009 13.8004C27.6009 6.191 21.4099 0 13.8004 0C6.191 0 0 6.191 0 13.8004C0 21.4099 6.191 27.6009 13.8004 27.6009C16.6571 27.6009 19.3794 26.7393 21.7069 25.1036L29.9038 33.6287C30.2464 33.9845 30.7072 34.1807 31.201 34.1807C31.6684 34.1807 32.1118 34.0025 32.4485 33.6785C33.1637 32.9903 33.1865 31.849 32.4983 31.1332ZM13.8004 3.60012C19.425 3.60012 24.0008 8.17587 24.0008 13.8004C24.0008 19.425 19.425 24.0008 13.8004 24.0008C8.17587 24.0008 3.60012 19.425 3.60012 13.8004C3.60012 8.17587 8.17587 3.60012 13.8004 3.60012Z" fill="black"/>
</svg>
