<svg width="15" height="16" viewBox="0 0 15 16" fill="none" xmlns="http://www.w3.org/2000/svg">
<path d="M9.3 15.0023H5.7C5.62044 15.0023 5.54413 14.9707 5.48787 14.9144C5.43161 14.8582 5.4 14.7819 5.4 14.7023V11.4023H4.95H4.8V12.3023C4.8 12.3819 4.76839 12.4582 4.71213 12.5144C4.65587 12.5707 4.57957 12.6023 4.5 12.6023H1.5C1.42044 12.6023 1.34413 12.5707 1.28787 12.5144C1.23161 12.4582 1.2 12.3819 1.2 12.3023V9.00229H0.744C0.546129 9.0007 0.356902 8.92099 0.217544 8.78051C0.0781871 8.64003 -6.33179e-06 8.45016 3.84558e-10 8.25229L3.84558e-10 6.15229C0.00045599 5.58652 0.188614 5.03689 0.534986 4.58953C0.881358 4.14218 1.36637 3.82239 1.914 3.68029C1.5925 3.39892 1.36446 3.02618 1.26033 2.61183C1.1562 2.19748 1.18093 1.76122 1.33122 1.36129C1.48151 0.961355 1.7502 0.616776 2.10145 0.373544C2.45269 0.130313 2.86976 0 3.297 0C3.72424 0 4.14131 0.130313 4.49255 0.373544C4.8438 0.616776 5.11249 0.961355 5.26278 1.36129C5.41307 1.76122 5.4378 2.19748 5.33367 2.61183C5.22954 3.02618 5.0015 3.39892 4.68 3.68029C4.95783 3.75128 5.22158 3.86896 5.46 4.02829C5.56696 3.56579 5.82746 3.15317 6.19903 2.85773C6.57059 2.56229 7.03129 2.40145 7.506 2.40145C7.98071 2.40145 8.44141 2.56229 8.81297 2.85773C9.18454 3.15317 9.44504 3.56579 9.552 4.02829C9.78847 3.86937 10.0502 3.7517 10.326 3.68029C10.0045 3.39892 9.77646 3.02618 9.67233 2.61183C9.5682 2.19748 9.59293 1.76122 9.74322 1.36129C9.89351 0.961355 10.1622 0.616776 10.5134 0.373544C10.8647 0.130313 11.2818 0 11.709 0C12.1362 0 12.5533 0.130313 12.9046 0.373544C13.2558 0.616776 13.5245 0.961355 13.6748 1.36129C13.8251 1.76122 13.8498 2.19748 13.7457 2.61183C13.6415 3.02618 13.4135 3.39892 13.092 3.68029C13.6385 3.82352 14.1222 4.14379 14.4674 4.59104C14.8126 5.03829 14.9999 5.58731 15 6.15229V8.25229C15 8.4512 14.921 8.64197 14.7803 8.78262C14.6397 8.92327 14.4489 9.00229 14.25 9.00229H13.8V12.3023C13.8 12.3819 13.7684 12.4582 13.7121 12.5144C13.6559 12.5707 13.5796 12.6023 13.5 12.6023H10.5C10.4204 12.6023 10.3441 12.5707 10.2879 12.5144C10.2316 12.4582 10.2 12.3819 10.2 12.3023V11.4023H10.05H9.6V14.7023C9.6 14.7819 9.56839 14.8582 9.51213 14.9144C9.45587 14.9707 9.37957 15.0023 9.3 15.0023ZM6 14.4023H9V11.1023C9 11.0227 9.03161 10.9464 9.08787 10.8902C9.14413 10.8339 9.22044 10.8023 9.3 10.8023H10.05C10.0898 10.8023 10.1279 10.7865 10.1561 10.7584C10.1842 10.7302 10.2 10.6921 10.2 10.6523V8.55229C10.2 8.03512 9.99455 7.53913 9.62886 7.17343C9.26316 6.80773 8.76717 6.60229 8.25 6.60229H6.75C6.23283 6.60229 5.73684 6.80773 5.37114 7.17343C5.00545 7.53913 4.8 8.03512 4.8 8.55229V10.6523C4.8 10.6921 4.8158 10.7302 4.84393 10.7584C4.87206 10.7865 4.91022 10.8023 4.95 10.8023H5.7C5.77957 10.8023 5.85587 10.8339 5.91213 10.8902C5.96839 10.9464 6 11.0227 6 11.1023V14.4023ZM10.8 12.0023H13.2V8.70229C13.2 8.62272 13.2316 8.54642 13.2879 8.49016C13.3441 8.43389 13.4204 8.40229 13.5 8.40229H14.25C14.2893 8.4008 14.3266 8.38452 14.3544 8.35671C14.3822 8.32889 14.3985 8.2916 14.4 8.25229V6.15229C14.4 5.63512 14.1946 5.13913 13.8289 4.77343C13.4632 4.40773 12.9672 4.20229 12.45 4.20229H10.95C10.4425 4.20699 9.95732 4.41183 9.6 4.77229C9.53305 5.27921 9.28344 5.74429 8.898 6.08029C9.4434 6.22465 9.92572 6.5454 10.2698 6.99254C10.6138 7.43969 10.8002 7.9881 10.8 8.55229V12.0023ZM1.8 12.0023H4.2V8.55229C4.2008 7.98572 4.38982 7.43548 4.73736 6.98802C5.0849 6.54057 5.57125 6.22126 6.12 6.08029C5.73418 5.75468 5.47858 5.30098 5.4 4.80229C5.22483 4.61764 5.0148 4.46955 4.78206 4.36656C4.54931 4.26358 4.29846 4.20774 4.044 4.20229H2.544C2.02787 4.20388 1.53342 4.41002 1.16902 4.77555C0.80462 5.14107 0.599998 5.63615 0.6 6.15229V8.25229C0.599969 8.29105 0.614946 8.32832 0.641792 8.35629C0.668637 8.38425 0.705267 8.40074 0.744 8.40229H1.5C1.57957 8.40229 1.65587 8.43389 1.71213 8.49016C1.76839 8.54642 1.8 8.62272 1.8 8.70229V12.0023ZM7.5 6.00229C7.79667 6.00229 8.08668 5.91431 8.33336 5.74949C8.58003 5.58467 8.77229 5.3504 8.88582 5.07631C8.99935 4.80222 9.02906 4.50062 8.97118 4.20965C8.9133 3.91868 8.77044 3.65141 8.56066 3.44163C8.35088 3.23185 8.08361 3.08899 7.79264 3.03111C7.50166 2.97323 7.20006 3.00294 6.92597 3.11647C6.65189 3.23 6.41762 3.42226 6.2528 3.66893C6.08797 3.91561 6 4.20562 6 4.50229C6 4.90011 6.15804 5.28164 6.43934 5.56295C6.72064 5.84425 7.10218 6.00229 7.5 6.00229ZM11.7 3.60229C11.9967 3.60229 12.2867 3.51431 12.5334 3.34949C12.78 3.18467 12.9723 2.9504 13.0858 2.67631C13.1994 2.40222 13.2291 2.10062 13.1712 1.80965C13.1133 1.51868 12.9704 1.25141 12.7607 1.04163C12.5509 0.831849 12.2836 0.688988 11.9926 0.63111C11.7017 0.573232 11.4001 0.602937 11.126 0.716469C10.8519 0.83 10.6176 1.02226 10.4528 1.26893C10.288 1.51561 10.2 1.80562 10.2 2.10229C10.2 2.50011 10.358 2.88164 10.6393 3.16295C10.9206 3.44425 11.3022 3.60229 11.7 3.60229V3.60229ZM3.3 3.60229C3.59667 3.60229 3.88668 3.51431 4.13336 3.34949C4.38003 3.18467 4.57229 2.9504 4.68582 2.67631C4.79935 2.40222 4.82906 2.10062 4.77118 1.80965C4.7133 1.51868 4.57044 1.25141 4.36066 1.04163C4.15088 0.831849 3.88361 0.688988 3.59264 0.63111C3.30166 0.573232 3.00006 0.602937 2.72598 0.716469C2.45189 0.83 2.21762 1.02226 2.0528 1.26893C1.88797 1.51561 1.8 1.80562 1.8 2.10229C1.8 2.49908 1.95721 2.8797 2.23722 3.16083C2.51722 3.44197 2.89722 3.6007 3.294 3.60229H3.3Z" fill="#544A4A"/>
</svg>
