<svg width="51" height="33" viewBox="0 0 51 33" fill="none" xmlns="http://www.w3.org/2000/svg">
<path d="M25.2998 0C21.0539 0 17.5998 3.45394 17.5998 7.69998C17.5998 11.946 21.0538 15.4 25.2998 15.4C29.5459 15.4 32.9998 11.9459 32.9998 7.69998C32.9998 3.45405 29.5459 0 25.2998 0ZM25.2998 13.1999C22.2683 13.1999 19.7999 10.7315 19.7999 7.69998C19.7999 4.66844 22.2683 2.20005 25.2998 2.20005C28.3314 2.20005 30.7997 4.66844 30.7997 7.69998C30.7997 10.7315 28.3315 13.1999 25.2998 13.1999Z" fill="black"/>
<path d="M40.6997 8.80029C37.6682 8.80029 35.1998 11.2687 35.1998 14.3002C35.1998 17.3318 37.6682 19.8002 40.6997 19.8002C43.7313 19.8002 46.1997 17.3318 46.1997 14.3002C46.1997 11.2687 43.7313 8.80029 40.6997 8.80029ZM40.6997 17.6002C38.8803 17.6002 37.3997 16.1196 37.3997 14.3002C37.3997 12.4808 38.8803 11.0002 40.6997 11.0002C42.5191 11.0002 43.9997 12.4808 43.9997 14.3002C43.9997 16.1196 42.519 17.6002 40.6997 17.6002Z" fill="black"/>
<path d="M10.0561 8.80029C7.02227 8.80029 4.55616 11.2687 4.55616 14.3002C4.55616 17.3318 7.02454 19.8002 10.0561 19.8002C13.0876 19.8002 15.556 17.3318 15.556 14.3002C15.556 11.2687 13.0898 8.80029 10.0561 8.80029ZM10.0561 17.6002C8.23666 17.6002 6.75611 16.1196 6.75611 14.3002C6.75611 12.4808 8.23666 11.0002 10.0561 11.0002C11.8755 11.0002 13.3561 12.4808 13.3561 14.3002C13.3561 16.1196 11.8754 17.6002 10.0561 17.6002Z" fill="black"/>
<path d="M25.2998 17.6001C17.415 17.6001 10.9998 24.0153 10.9998 31.9C10.9998 32.5072 11.4927 33.0001 12.0999 33.0001C12.7071 33.0001 13.1999 32.5072 13.1999 31.9C13.1999 25.2275 18.6272 19.8002 25.2998 19.8002C31.9723 19.8002 37.3997 25.2275 37.3997 31.9C37.3997 32.5072 37.8925 33.0001 38.4997 33.0001C39.1069 33.0001 39.5997 32.5072 39.5997 31.9C39.5997 24.0153 33.1846 17.6001 25.2998 17.6001Z" fill="black"/>
<path d="M40.6997 22C38.8892 22 37.1159 22.495 35.5715 23.43C35.0546 23.7468 34.8873 24.4222 35.2019 24.9414C35.5209 25.4606 36.1941 25.6256 36.7133 25.311C37.9123 24.5827 39.2895 24.2 40.6997 24.2C44.9456 24.2 48.3997 27.6539 48.3997 31.8999C48.3997 32.5071 48.8925 33 49.4997 33C50.1069 33 50.5997 32.5071 50.5997 31.8999C50.5996 26.4418 46.1579 22 40.6997 22Z" fill="black"/>
<path d="M25.2998 0C21.0539 0 17.5998 3.45394 17.5998 7.69998C17.5998 11.946 21.0538 15.4 25.2998 15.4C29.5459 15.4 32.9998 11.9459 32.9998 7.69998C32.9998 3.45405 29.5459 0 25.2998 0ZM25.2998 13.1999C22.2683 13.1999 19.7999 10.7315 19.7999 7.69998C19.7999 4.66844 22.2683 2.20005 25.2998 2.20005C28.3314 2.20005 30.7997 4.66844 30.7997 7.69998C30.7997 10.7315 28.3315 13.1999 25.2998 13.1999Z" fill="black"/>
<path d="M40.6997 8.80029C37.6682 8.80029 35.1998 11.2687 35.1998 14.3002C35.1998 17.3318 37.6682 19.8002 40.6997 19.8002C43.7313 19.8002 46.1997 17.3318 46.1997 14.3002C46.1997 11.2687 43.7313 8.80029 40.6997 8.80029ZM40.6997 17.6002C38.8803 17.6002 37.3997 16.1196 37.3997 14.3002C37.3997 12.4808 38.8803 11.0002 40.6997 11.0002C42.5191 11.0002 43.9997 12.4808 43.9997 14.3002C43.9997 16.1196 42.519 17.6002 40.6997 17.6002Z" fill="black"/>
<path d="M10.0561 8.80029C7.02227 8.80029 4.55616 11.2687 4.55616 14.3002C4.55616 17.3318 7.02454 19.8002 10.0561 19.8002C13.0876 19.8002 15.556 17.3318 15.556 14.3002C15.556 11.2687 13.0898 8.80029 10.0561 8.80029ZM10.0561 17.6002C8.23666 17.6002 6.75611 16.1196 6.75611 14.3002C6.75611 12.4808 8.23666 11.0002 10.0561 11.0002C11.8755 11.0002 13.3561 12.4808 13.3561 14.3002C13.3561 16.1196 11.8754 17.6002 10.0561 17.6002Z" fill="black"/>
<path d="M25.2998 17.6001C17.415 17.6001 10.9998 24.0153 10.9998 31.9C10.9998 32.5072 11.4927 33.0001 12.0999 33.0001C12.7071 33.0001 13.1999 32.5072 13.1999 31.9C13.1999 25.2275 18.6272 19.8002 25.2998 19.8002C31.9723 19.8002 37.3997 25.2275 37.3997 31.9C37.3997 32.5072 37.8925 33.0001 38.4997 33.0001C39.1069 33.0001 39.5997 32.5072 39.5997 31.9C39.5997 24.0153 33.1846 17.6001 25.2998 17.6001Z" fill="black"/>
<path d="M40.6997 22C38.8892 22 37.1159 22.495 35.5715 23.43C35.0546 23.7468 34.8873 24.4222 35.2019 24.9414C35.5209 25.4606 36.1941 25.6256 36.7133 25.311C37.9123 24.5827 39.2895 24.2 40.6997 24.2C44.9456 24.2 48.3997 27.6539 48.3997 31.8999C48.3997 32.5071 48.8925 33 49.4997 33C50.1069 33 50.5997 32.5071 50.5997 31.8999C50.5996 26.4418 46.1579 22 40.6997 22Z" fill="black"/>
<path d="M15.0259 23.4278C13.4837 22.495 11.7106 22 9.89993 22C4.44177 22 0 26.4418 0 31.8999C0 32.5071 0.492831 33 1.10003 33C1.70722 33 2.20005 32.5071 2.20005 31.8999C2.19995 27.6539 5.654 24.2 9.89993 24.2C11.3102 24.2 12.6873 24.5828 13.8841 25.3087C14.4011 25.6234 15.0787 25.4584 15.3955 24.9391C15.7123 24.4199 15.5451 23.7446 15.0259 23.4278Z" fill="black"/>
</svg>
