<svg width="26" height="25" viewBox="0 0 26 25" fill="none" xmlns="http://www.w3.org/2000/svg">
<path d="M15.2544 12.5L24.6022 3.15183C24.8593 2.8945 25.0012 2.55118 25.0016 2.1851C25.0016 1.81882 24.8597 1.4751 24.6022 1.21817L23.783 0.399213C23.5255 0.141269 23.1822 0 22.8157 0C22.4498 0 22.1065 0.141269 21.849 0.399213L12.5012 9.74677L3.15305 0.399213C2.89592 0.141269 2.5524 0 2.18612 0C1.82024 0 1.47672 0.141269 1.21959 0.399213L0.400026 1.21817C-0.133342 1.75154 -0.133342 2.61907 0.400026 3.15183L9.74799 12.5L0.400026 21.8478C0.142692 22.1055 0.00101633 22.4488 0.00101633 22.8149C0.00101633 23.181 0.142692 23.5243 0.400026 23.7818L1.21939 24.6008C1.47652 24.8585 1.82024 25 2.18591 25C2.5522 25 2.89572 24.8585 3.15285 24.6008L12.501 15.253L21.8488 24.6008C22.1063 24.8585 22.4496 25 22.8155 25H22.8159C23.182 25 23.5253 24.8585 23.7828 24.6008L24.602 23.7818C24.8591 23.5245 25.001 23.181 25.001 22.8149C25.001 22.4488 24.8591 22.1055 24.602 21.848L15.2544 12.5Z" fill="#544A4A"/>
</svg>
